<svg width="14" height="14" viewBox="0 0 14 14" fill="none" xmlns="http://www.w3.org/2000/svg">
<g clip-path="url(#clip0_330_944)">
<path d="M9.9162 0.787102H3.32981C2.45641 0.787102 1.61877 1.13406 1.00118 1.75166C0.383582 2.36925 0.0366211 3.20689 0.0366211 4.0803L0.0366211 10.6667C0.0366211 11.5401 0.383582 12.3777 1.00118 12.9953C1.61877 13.6129 2.45641 13.9599 3.32981 13.9599H9.9162C10.7896 13.9599 11.6272 13.6129 12.2448 12.9953C12.8624 12.3777 13.2094 11.5401 13.2094 10.6667V4.0803C13.2094 3.20689 12.8624 2.36925 12.2448 1.75166C11.6272 1.13406 10.7896 0.787102 9.9162 0.787102V0.787102ZM12.5919 10.6667C12.5911 11.3761 12.3089 12.0562 11.8073 12.5578C11.3057 13.0594 10.6256 13.3416 9.9162 13.3424H3.32981C2.62042 13.3416 1.94032 13.0594 1.4387 12.5578C0.93708 12.0562 0.654912 11.3761 0.654095 10.6667V4.0803C0.654912 3.3709 0.93708 2.6908 1.4387 2.18918C1.94032 1.68756 2.62042 1.40539 3.32981 1.40458H9.9162C10.6256 1.40539 11.3057 1.68756 11.8073 2.18918C12.3089 2.6908 12.5911 3.3709 12.5919 4.0803V10.6667Z" fill="#37474F"/>
<path d="M9.40179 9.71544L4.28128 4.59494H6.3068V3.97746H3.22705V7.05722H3.84452V5.03149L8.96524 10.1522H6.93951V10.7697H10.0193V7.68992H9.40179V9.71544Z" fill="#37474F"/>
</g>
<defs>
<clipPath id="clip0_330_944">
<rect width="13.1728" height="13.1728" fill="white" transform="translate(0.0366211 0.787102)"/>
</clipPath>
</defs>
</svg>
