<svg width="14" height="14" viewBox="0 0 14 14" fill="none" xmlns="http://www.w3.org/2000/svg">
<g clip-path="url(#clip0_330_933)">
<path d="M8.16329 10.371C8.14848 10.1578 7.96361 9.99692 7.75038 10.0118C7.53715 10.0266 7.37627 10.2114 7.39108 10.4247L7.41696 10.7976C7.43175 11.0106 7.61628 11.1716 7.82987 11.1568C8.0431 11.142 8.20398 10.9572 8.18917 10.7439L8.16329 10.371Z" fill="#37474F"/>
<path d="M9.99953 9.41757C9.91324 9.22199 9.68474 9.13341 9.48921 9.21969C9.29363 9.30597 9.20505 9.53445 9.29133 9.73001L9.43324 10.0517C9.5195 10.2472 9.74795 10.3359 9.94356 10.2496C10.1391 10.1633 10.2277 9.93482 10.1414 9.73927L9.99953 9.41757Z" fill="#37474F"/>
<path d="M11.7931 8.48335C11.6456 8.32869 11.4006 8.32283 11.2459 8.47037C11.0912 8.61788 11.0854 8.86287 11.2329 9.01756L11.4909 9.28804C11.6383 9.4427 11.8834 9.44859 12.0381 9.30102C12.1928 9.15351 12.1986 8.90852 12.0511 8.75383L11.7931 8.48335Z" fill="#37474F"/>
<path d="M7.70116 12.3731C7.48767 12.3835 7.32305 12.5651 7.33348 12.7785L7.35234 13.1644C7.36276 13.3779 7.54433 13.5426 7.75779 13.5321C7.97128 13.5217 8.1359 13.3401 8.12548 13.1267L8.10661 12.7408C8.09619 12.5273 7.91454 12.3628 7.70116 12.3731Z" fill="#37474F"/>
<path d="M9.95158 11.8292C9.89084 11.6242 9.67542 11.5073 9.47049 11.5681C9.26555 11.6288 9.14866 11.8442 9.20943 12.0492L9.31276 12.3978C9.37358 12.603 9.58916 12.7196 9.79385 12.6589C9.9988 12.5981 10.1157 12.3827 10.0549 12.1778L9.95158 11.8292Z" fill="#37474F"/>
<path d="M11.7712 10.9184C11.6608 10.7354 11.4229 10.6765 11.2399 10.787C11.0569 10.8974 10.998 11.1352 11.1084 11.3183L11.2962 11.6296C11.4066 11.8126 11.6445 11.8715 11.8276 11.7611C12.0106 11.6507 12.0694 11.4128 11.959 11.2298L11.7712 10.9184Z" fill="#37474F"/>
<path d="M13.847 10.2988L13.5747 10.0247C13.424 9.87309 13.179 9.87226 13.0273 10.0229C12.8757 10.1736 12.8749 10.4187 13.0256 10.5703L13.2979 10.8444C13.4484 10.9958 13.6935 10.9969 13.8452 10.8461C13.9968 10.6955 13.9976 10.4504 13.847 10.2988Z" fill="#37474F"/>
<path d="M11.9007 5.93422L11.7834 5.67084C11.5896 5.23541 11.1296 5.00005 10.6797 5.07052L10.6073 4.908C10.186 3.96174 9.19312 3.44066 8.20127 3.59931L7.94682 3.02119C7.34996 1.6652 6.0069 0.789001 4.52529 0.789001C2.46404 0.789001 0.787109 2.46595 0.787109 4.52718V13.5707C0.787109 13.7846 0.960527 13.958 1.17443 13.958H2.72372C2.93763 13.958 3.11105 13.7846 3.11105 13.5707V4.52718C3.11105 3.74737 3.74548 3.11294 4.52529 3.11294C5.08585 3.11294 5.59397 3.44438 5.81977 3.95743L6.09304 4.57808C5.3828 5.22209 5.15177 6.25787 5.55244 7.15827L5.62485 7.32073C5.27801 7.60206 5.13561 8.09819 5.33325 8.54214L5.4505 8.80552C5.70681 9.38132 6.38165 9.64439 6.96225 9.38594L11.3203 7.44594C11.8971 7.18923 12.1575 6.51105 11.9007 5.93422ZM9.89968 5.22307L9.95752 5.35301L6.31803 6.97312L6.26014 6.84317C5.93001 6.10126 6.25513 5.23017 7.00868 4.89416L7.94971 4.47497C8.71413 4.13684 9.57236 4.48796 9.89968 5.22307ZM4.52529 2.33829C3.31834 2.33829 2.3364 3.32023 2.3364 4.52718V13.1833H1.56175V4.52718C1.56175 2.89309 2.8912 1.56365 4.52529 1.56365C5.69991 1.56365 6.76466 2.25827 7.23787 3.33327L7.46262 3.84392L6.75498 4.15915L6.52876 3.64535C6.17931 2.85134 5.39289 2.33829 4.52529 2.33829ZM11.0053 6.73828L6.6472 8.67828C6.46015 8.7615 6.24144 8.67758 6.15819 8.49053L6.04094 8.22712C5.98286 8.09672 6.04143 7.94417 6.17188 7.8861C6.50552 7.73757 10.6362 5.89882 10.7347 5.85492C10.8649 5.79703 11.0179 5.85575 11.0758 5.98587L11.1931 6.24924C11.2761 6.43583 11.1918 6.65524 11.0053 6.73828Z" fill="#37474F"/>
</g>
<defs>
<clipPath id="clip0_330_933">
<rect width="13.1728" height="13.169" fill="white" transform="translate(0.787109 0.789001)"/>
</clipPath>
</defs>
</svg>
