<svg width="14" height="14" viewBox="0 0 14 14" fill="none" xmlns="http://www.w3.org/2000/svg">
<g clip-path="url(#clip0_330_929)">
<path d="M13.0678 7.39088V7.14C13.0678 6.67785 12.8285 6.27075 12.4676 6.03534V3.29869C12.4676 2.57867 11.8818 1.99289 11.1617 1.99289H3.0872C2.36717 1.99289 1.78137 2.57867 1.78137 3.29869V6.03531C1.4204 6.27073 1.18113 6.67782 1.18113 7.13997V7.39085C0.811524 7.48818 0.538086 7.82522 0.538086 8.22498V11.1605C0.538086 11.6223 0.902961 12.0004 1.35956 12.0219V12.3693C1.35956 12.582 1.53201 12.7545 1.74473 12.7545C1.95745 12.7545 2.12991 12.582 2.12991 12.3693V12.0229H12.119V12.3693C12.119 12.582 12.2915 12.7545 12.5042 12.7545C12.7169 12.7545 12.8894 12.582 12.8894 12.3693V12.0219C13.346 12.0004 13.7109 11.6222 13.7109 11.1604V8.22498C13.7109 7.82519 13.4374 7.48818 13.0678 7.39088ZM2.55174 3.29869C2.55174 3.00344 2.79194 2.76324 3.0872 2.76324H11.1617C11.457 2.76324 11.6972 3.00344 11.6972 3.29869V5.82177H11.1836V5.14286C11.1836 4.66766 10.797 4.28104 10.3218 4.28104H8.2492C7.774 4.28104 7.38739 4.66766 7.38739 5.14286V5.82177H6.86156V5.14286C6.86156 4.66766 6.47494 4.28104 5.99974 4.28104H3.92714C3.45192 4.28104 3.06533 4.66766 3.06533 5.14286V5.82177H2.55174V3.29869ZM10.4132 5.14283V5.73031C10.4132 5.78073 10.3722 5.82174 10.3218 5.82174H8.2492C8.19877 5.82174 8.15776 5.78071 8.15776 5.73031V5.14283C8.15776 5.0924 8.1988 5.05139 8.2492 5.05139H10.3218C10.3722 5.05139 10.4132 5.0924 10.4132 5.14283ZM6.09118 5.14283V5.73031C6.09118 5.78073 6.05015 5.82174 5.99974 5.82174H3.92714C3.87671 5.82174 3.8357 5.78071 3.8357 5.73031V5.14283C3.8357 5.0924 3.87674 5.05139 3.92714 5.05139H5.99974C6.05015 5.05139 6.09118 5.0924 6.09118 5.14283ZM1.95151 7.13997C1.95151 6.83788 2.19729 6.59212 2.49939 6.59212H11.7496C12.0517 6.59212 12.2974 6.8379 12.2974 7.13997V7.36247H1.95151V7.13997ZM12.9405 11.1604C12.9405 11.2112 12.8992 11.2525 12.8484 11.2525H1.40057C1.34978 11.2525 1.30844 11.2112 1.30844 11.1604V8.22498C1.30844 8.17419 1.34976 8.13287 1.40057 8.13287H12.8484C12.8992 8.13287 12.9405 8.17419 12.9405 8.22498V11.1604H12.9405Z" fill="#37474F"/>
</g>
<defs>
<clipPath id="clip0_330_929">
<rect width="13.1728" height="13.1728" fill="white" transform="translate(0.538086 0.787102)"/>
</clipPath>
</defs>
</svg>
