<svg width="979" height="429" viewBox="0 0 979 429" fill="none" xmlns="http://www.w3.org/2000/svg">
<g clip-path="url(#clip0_568_951)">
<path d="M978.529 0H-4.80041e-05V132.236C17.8342 134.177 35.8928 135.608 53.8392 136.732C91.078 139.083 128.541 141.024 165.892 142.455C200.215 143.783 235.322 144.499 269.533 141.126C289.498 138.163 309.239 133.973 329.092 130.907C345.356 128.353 361.845 126.002 378.445 125.491C386.745 125.185 394.933 125.287 403.121 124.878C404.019 124.674 405.028 124.469 405.926 124.265C413.328 120.075 419.834 114.761 427.573 110.98C436.21 106.79 445.52 103.111 454.942 100.556C456.624 100.148 458.307 99.6367 459.989 99.228C465.71 95.5491 471.991 92.7899 478.945 91.0526C484.329 90.4395 489.713 89.7242 495.097 89.111C511.361 88.4979 526.615 95.6513 538.168 105.359C549.385 114.761 556.003 131.01 556.003 144.601C556.003 157.784 549.497 174.952 538.168 183.843C525.045 194.164 514.165 199.887 497.564 204.894C494.424 205.814 491.171 206.631 487.918 207.551C482.422 210.515 477.375 213.887 472.103 217.361C460.886 224.719 447.315 229.931 433.743 232.486C410.637 236.778 387.53 235.654 364.424 237.697C333.691 242.092 303.519 248.734 272.561 252.106C217.712 257.931 161.63 253.537 106.781 250.88C78.7399 249.552 50.8108 248.121 22.7695 245.771C15.1422 245.157 7.51502 244.34 -0.112213 243.522V429.204H978.416V0H978.529Z" fill="white"/>
<path d="M978.529 0H0V429H978.529V0Z" fill="#F2F2F2"/>
<path d="M978.529 257.216H0V429H978.529V257.216Z" fill="#C4C4C4"/>
<path fill-rule="evenodd" clip-rule="evenodd" d="M978.529 222.675L929.176 219.201L918.296 231.464L799.513 224.821C796.036 211.23 792.559 180.981 792.559 180.981L700.808 175.769L684.32 197.127L622.853 191.303L611.861 159.01L594.924 157.579L592.232 177.098L578.997 177.915L575.744 198.047L566.21 198.66L563.406 208.471L549.273 207.96L543.552 201.726C529.307 199.478 525.83 198.558 525.83 198.558C525.269 198.354 519.1 207.653 518.427 208.777C513.043 209.084 508.22 207.347 502.949 207.244C495.321 207.142 487.021 210.004 479.618 211.434C462.793 214.807 445.969 217.77 429.032 220.529C395.27 226.048 361.172 230.442 327.074 233.814C258.765 240.457 189.896 242.603 121.251 240.252C91.4147 239.23 61.5787 237.391 31.855 234.632C23.4426 233.814 14.6937 232.997 6.61782 235.449C4.26235 236.165 2.13122 237.187 0.112244 238.413V265.391C1.68256 266.413 3.36503 267.231 5.15967 267.844C12.4504 270.501 20.5263 270.399 28.49 270.297C143.459 268.662 258.316 267.129 373.286 265.494C407.945 264.983 443.501 264.37 475.58 252.515C489.937 247.201 503.285 239.844 517.642 234.734C541.758 226.15 567.107 230.646 592.232 232.179C613.992 233.508 635.752 234.938 657.512 236.267C705.182 239.23 752.965 242.194 800.635 245.26C845.725 248.121 890.816 250.88 935.794 253.742L978.529 256.399V222.675Z" fill="#DBDBDB"/>
<path fill-rule="evenodd" clip-rule="evenodd" d="M978.529 226.865L974.715 226.354L978.529 238.719V226.865Z" fill="#C4C4C4"/>
<path fill-rule="evenodd" clip-rule="evenodd" d="M978.529 244.647L968.434 243.931L965.742 221.756L929.176 219.201L918.296 231.464L799.513 224.821L796.26 218.179L796.372 234.223L774.052 232.69L766.088 206.12L733.448 200.602L728.737 177.405L700.808 175.769L684.319 197.127L622.853 191.303L624.76 222.88L616.123 222.267L609.505 189.668L606.813 189.259L604.121 217.566L598.625 221.142L597.616 157.682L594.812 157.477L592.793 177.507L578.884 177.915L575.631 198.047L566.097 198.66L563.293 208.471L549.161 207.96L558.695 221.245L546.244 220.632L540.524 205.916L532.56 203.463L531.438 216.85L528.746 216.646L525.718 198.66L518.315 208.879C518.315 208.879 516.857 213.785 516.52 214.398C516.184 214.909 513.38 215.011 512.819 215.011C488.143 217.975 464.027 222.778 441.258 232.179L677.477 239.844L634.406 231.566L668.953 216.953L681.628 217.259L735.467 230.442L741.636 243.829L813.309 247.099L854.698 236.573L930.634 243.318L949.366 254.763L978.753 256.603V244.647H978.529Z" fill="#C4C4C4"/>
<path fill-rule="evenodd" clip-rule="evenodd" d="M978.529 187.419L977.519 197.23L972.92 198.456L966.303 236.88L944.43 242.909V232.792L937.364 231.464L922.109 215.113L921.997 210.004L888.123 209.084L896.536 62.7456L867.149 52.4243L836.752 49.3585L831.592 123.141L827.218 125.696L822.956 166.674L805.794 165.55L805.682 133.258L781.23 127.637L755.656 137.141L738.832 220.734L731.541 261.713L903.378 273.771L978.529 270.297V187.419Z" fill="#DBDBDB"/>
<path fill-rule="evenodd" clip-rule="evenodd" d="M867.148 52.4242L867.934 203.565L888.011 205.2L888.123 209.084H876.907L871.299 216.85L868.158 253.844L849.09 251.391L858.512 157.681L859.409 140.513L858.96 119.666L861.428 51.9132L867.148 52.4242Z" fill="#C4C4C4"/>
<path fill-rule="evenodd" clip-rule="evenodd" d="M781.23 127.637L793.007 130.294L790.988 151.754L785.604 256.807L741.748 258.647L747.356 240.048C747.356 240.048 766.088 133.36 766.761 133.053C767.321 132.849 781.23 127.637 781.23 127.637Z" fill="#C4C4C4"/>
<path fill-rule="evenodd" clip-rule="evenodd" d="M805.794 165.55L801.981 253.844L817.684 254.763L822.955 166.674L805.794 165.55Z" fill="#C4C4C4"/>
<path fill-rule="evenodd" clip-rule="evenodd" d="M915.828 260.691L916.613 226.354L922.109 215.113L937.364 231.464L936.579 258.953L915.828 260.691Z" fill="#C4C4C4"/>
<path fill-rule="evenodd" clip-rule="evenodd" d="M978.529 187.419L977.519 197.23L972.92 198.456L966.303 236.88L959.012 263.245L969.331 265.494L978.529 262.939V187.419Z" fill="#C4C4C4"/>
<path fill-rule="evenodd" clip-rule="evenodd" d="M978.529 258.34C955.983 260.18 926.035 262.939 926.035 262.939C926.035 262.939 877.356 264.267 876.907 261.712L876.01 258.238C876.01 258.238 788.521 253.537 731.205 249.756L732.999 241.785L649.1 229.931L483.544 223.391C473.449 229.113 445.52 230.237 433.855 232.383C410.749 236.676 387.643 235.551 364.537 237.595C333.803 241.989 303.631 248.632 272.673 252.004C217.825 257.829 161.742 253.435 106.893 250.778C78.8521 249.449 50.923 248.019 22.8817 245.668C15.2545 245.055 7.62723 244.238 0 243.42V327.013L978.529 353.889V258.34Z" fill="#C4C4C4"/>
<path fill-rule="evenodd" clip-rule="evenodd" d="M380.576 257.625C380.688 257.42 380.801 257.216 380.913 257.216C380.801 257.42 380.688 257.523 380.576 257.625Z" fill="#DBDBDB"/>
<path opacity="0.68" fill-rule="evenodd" clip-rule="evenodd" d="M978.529 425.525L941.963 429H978.529V425.525Z" fill="url(#paint0_linear_568_951)"/>
<path fill-rule="evenodd" clip-rule="evenodd" d="M978.529 429V346.634L897.77 355.013C684.207 346.634 449.67 335.393 220.965 320.37C220.292 320.37 228.368 318.633 228.368 318.633C381.025 292.37 709.781 274.384 709.781 274.384C709.781 274.384 672.318 265.494 622.741 259.873C617.581 259.26 602.215 257.523 602.215 257.523C602.215 257.523 634.182 261.406 641.472 262.939C659.195 266.618 684.319 273.056 645.062 274.487C601.093 276.019 206.608 303.202 47.3337 314.239C37.7997 314.852 37.2388 327.422 46.6607 328.75C91.5268 335.495 150.189 344.181 192.251 349.802C294.209 363.597 445.52 375.145 613.88 384.24L180.586 428.898H978.529V429Z" fill="#B0B0B0"/>
<path fill-rule="evenodd" clip-rule="evenodd" d="M761.601 370.751L751.618 371.977L637.434 365.437L656.39 363.7L761.601 370.751Z" fill="#DBDBDB"/>
<path fill-rule="evenodd" clip-rule="evenodd" d="M419.834 351.743L429.929 351.028L563.293 357.773L549.273 359.612L419.834 351.743Z" fill="#DBDBDB"/>
<path fill-rule="evenodd" clip-rule="evenodd" d="M267.738 339.991L278.618 339.787L370.706 346.225L356.124 347.86L267.738 339.991Z" fill="#DBDBDB"/>
<path fill-rule="evenodd" clip-rule="evenodd" d="M174.753 331.407L185.745 330.59L236.893 335.699L230.724 336.312L174.753 331.407Z" fill="#DBDBDB"/>
<path fill-rule="evenodd" clip-rule="evenodd" d="M0 317.509L660.316 273.26C660.316 273.26 450.904 282.968 294.546 293.085C173.407 301.056 49.6892 310.458 0 314.239V317.509Z" fill="#C4C4C4"/>
<path fill-rule="evenodd" clip-rule="evenodd" d="M803.551 429L892.722 413.263H852.119L754.871 429H803.551Z" fill="#DBDBDB"/>
<path fill-rule="evenodd" clip-rule="evenodd" d="M978.529 341.728L895.751 351.334V351.437C894.517 351.334 893.283 351.334 892.049 351.232C888.572 351.028 885.095 350.926 881.506 350.721C875.898 350.415 870.401 350.21 864.793 349.904C857.39 349.495 849.987 349.188 842.584 348.78C833.611 348.371 824.526 347.86 815.553 347.451C805.121 346.94 794.802 346.429 784.371 345.918L749.712 344.181C737.261 343.568 724.699 342.955 712.249 342.342C699.013 341.728 685.778 341.013 672.542 340.4C658.858 339.685 645.062 339.072 631.378 338.356C617.357 337.641 603.336 336.925 589.428 336.21C575.407 335.495 561.274 334.779 547.254 334.064C533.345 333.349 519.549 332.633 505.64 332.02C492.181 331.305 478.721 330.692 465.149 329.976C452.25 329.363 439.463 328.648 426.564 328.035C407.832 327.115 389.213 326.195 370.481 325.276C351.75 324.356 332.906 323.436 314.175 322.414C297.35 321.597 280.637 320.779 263.812 319.859C286.806 314.75 309.8 309.64 332.794 304.531C293.2 309.845 253.605 315.159 214.011 320.473L384.951 330.487C403.346 331.612 421.853 332.633 440.248 333.962C458.868 335.393 477.375 337.232 495.882 339.582C505.304 340.809 514.614 341.626 524.148 342.342C529.195 342.75 534.243 343.057 539.29 343.466C557.909 344.794 576.529 345.918 595.148 347.247C596.158 347.349 597.167 347.349 598.177 347.451C616.011 348.78 633.733 350.21 651.455 351.641C686.002 354.4 720.997 358.181 755.656 358.386C755.993 358.386 756.329 358.386 756.554 358.386C788.184 358.59 819.703 358.794 851.333 358.999L892.386 359.305L978.529 357.67V341.728Z" fill="#C4C4C4"/>
<path fill-rule="evenodd" clip-rule="evenodd" d="M456.176 300.75C456.176 300.75 537.047 291.961 623.077 296.56C623.189 296.56 549.16 308.721 456.176 300.75Z" fill="#C4C4C4"/>
<path fill-rule="evenodd" clip-rule="evenodd" d="M914.931 41.2854L918.52 41.8985L909.323 344.283L904.836 344.794L914.931 41.2854Z" fill="#8E97A5"/>
<path fill-rule="evenodd" clip-rule="evenodd" d="M912.8 71.5341L912.688 72.6582L905.061 66.5267L906.182 66.6289L912.8 71.5341Z" fill="#351924"/>
<path fill-rule="evenodd" clip-rule="evenodd" d="M912.8 71.534L906.182 66.6288L906.631 66.4244L913.136 71.534H912.8Z" fill="#8E97A5"/>
<path fill-rule="evenodd" clip-rule="evenodd" d="M914.931 41.2854L911.903 41.3876L900.798 344.283L904.836 344.794L914.931 41.2854Z" fill="#5B6A87"/>
<path fill-rule="evenodd" clip-rule="evenodd" d="M912.351 272.34L907.304 272.238L904.836 344.794L909.996 344.283L912.351 272.34Z" fill="#8E97A5"/>
<path fill-rule="evenodd" clip-rule="evenodd" d="M902.929 272.238H907.304L904.836 344.794L900.125 344.283L902.929 272.238Z" fill="#5B6A87"/>
<path fill-rule="evenodd" clip-rule="evenodd" d="M932.99 57.4316L894.629 63.3587V67.3442L932.877 63.7675L932.99 57.4316Z" fill="#5B6A87"/>
<path fill-rule="evenodd" clip-rule="evenodd" d="M894.629 67.3443L900.013 67.4465L911.342 66.3224V66.0158L914.482 65.607L916.95 66.118L937.813 64.0742L932.877 63.7676L894.629 67.3443Z" fill="#351924"/>
<path fill-rule="evenodd" clip-rule="evenodd" d="M932.99 57.4316L937.813 58.147V64.0741L932.877 63.7675L932.99 57.4316Z" fill="#8E97A5"/>
<path fill-rule="evenodd" clip-rule="evenodd" d="M896.424 63.1544L897.209 59.5777L898.218 59.3733L899.116 62.6434L896.424 63.1544Z" fill="#5B6A87"/>
<path fill-rule="evenodd" clip-rule="evenodd" d="M900.686 62.439L899.116 62.6434L898.218 59.3733L899.34 59.5777L900.686 62.439Z" fill="#8E97A5"/>
<path fill-rule="evenodd" clip-rule="evenodd" d="M931.98 57.5338L929.064 58.0447L930.298 54.6724L931.644 54.3658L931.98 57.5338Z" fill="#5B6A87"/>
<path fill-rule="evenodd" clip-rule="evenodd" d="M932.99 54.7746L931.644 54.3658L931.98 57.5338L932.99 57.4316L933.55 57.5338L932.99 54.7746Z" fill="#8E97A5"/>
<path fill-rule="evenodd" clip-rule="evenodd" d="M904.163 61.928L904.948 58.1469L906.182 57.8403L906.743 61.5192L904.163 61.928Z" fill="#5B6A87"/>
<path fill-rule="evenodd" clip-rule="evenodd" d="M906.967 57.8403H906.182L906.743 61.5192L907.977 61.3148L906.967 57.8403Z" fill="#8E97A5"/>
<path fill-rule="evenodd" clip-rule="evenodd" d="M919.978 59.4755L922.334 59.0667L921.885 55.3878L920.427 55.7966L919.978 59.4755Z" fill="#5B6A87"/>
<path fill-rule="evenodd" clip-rule="evenodd" d="M923.007 55.6944L921.885 55.3878L922.334 59.0667L923.343 58.9645L923.007 55.6944Z" fill="#8E97A5"/>
<path fill-rule="evenodd" clip-rule="evenodd" d="M925.474 64.6873L924.353 64.7894L916.165 70.9209V71.8407L925.474 64.6873Z" fill="#351924"/>
<path fill-rule="evenodd" clip-rule="evenodd" d="M925.474 64.6873H926.372L916.838 71.7385L916.165 71.8407L925.474 64.6873Z" fill="#8E97A5"/>
<path d="M978.529 82.1619C975.5 80.5269 972.584 78.994 969.555 77.3589C963.162 73.7822 956.881 70.1033 950.711 66.3223C944.542 62.439 938.373 58.4535 932.429 54.3659C929.4 52.322 926.484 50.176 923.568 48.03C920.651 45.884 917.735 43.6357 915.043 41.2853H914.931C911.117 42.1029 907.304 42.716 903.602 43.3292C899.789 43.9423 895.975 44.5555 892.161 45.0664C884.534 46.0883 876.795 47.0081 869.055 47.7234C861.316 48.4387 853.577 49.0519 845.837 49.5628C843.93 49.665 841.911 49.7672 840.005 49.8694L837.088 50.0738L834.172 50.176L828.339 50.3804L822.507 50.5848C821.497 50.5848 820.6 50.687 819.591 50.687L816.674 50.7891L810.842 50.8913H805.009H802.093C801.083 50.8913 800.186 50.8913 799.176 50.8913H793.344H791.886H790.428L787.511 50.7891L781.679 50.687L775.846 50.4826C760.143 49.9716 744.44 49.0519 728.737 47.6212C697.331 44.7598 666.036 40.059 635.079 33.5188L629.246 32.2925L626.33 31.6793C625.321 31.475 624.423 31.2706 623.414 31.0662L611.861 28.4092L600.308 25.5478C598.401 25.0369 596.494 24.5259 594.587 24.015L588.867 22.4821L585.951 21.6646C584.941 21.358 584.044 21.1536 583.034 20.847L577.314 19.212L571.593 17.5769L570.135 17.1681L568.677 16.7594L565.873 15.8396L560.153 14.1024L557.348 13.1827L555.89 12.7739C555.442 12.6717 554.993 12.4673 554.432 12.2629L543.104 8.48186C541.197 7.86871 539.29 7.15337 537.495 6.54022L531.887 4.59858C529.98 3.98543 528.186 3.27009 526.279 2.65694L520.67 0.613112L519.549 0.204346H518.315L520.558 1.02188L526.167 3.06571C528.073 3.78105 529.868 4.3942 531.775 5.00735L537.383 6.94899C539.29 7.56214 541.085 8.27748 542.991 8.89062L554.32 12.6717C554.769 12.8761 555.217 12.9783 555.778 13.1827L557.236 13.5914L559.704 14.3068L565.424 16.044L568.228 16.9638L569.687 17.3725L571.145 17.7813L576.865 19.4164L582.586 21.0514C583.483 21.358 584.492 21.5624 585.502 21.8689L588.418 22.6865L594.139 24.2194C596.045 24.7303 597.952 25.2413 599.859 25.7522L611.3 28.6136L622.853 31.2706C623.862 31.475 624.76 31.6793 625.769 31.8837L628.685 32.4969L634.518 33.7232C665.476 40.2634 696.882 44.9642 728.288 47.7234C743.991 49.1541 759.694 50.0738 775.397 50.5848L781.23 50.7891L787.063 50.8913H789.979H791.437H792.895H798.728C799.737 50.8913 800.635 50.8913 801.644 50.8913H804.56H810.393L816.226 50.7891L819.142 50.687C820.151 50.687 821.049 50.5848 822.058 50.5848L827.891 50.3804L833.723 50.176L836.64 50.0738L839.556 49.8694C841.463 49.7672 843.482 49.665 845.388 49.5628C853.128 49.0519 860.867 48.4387 868.607 47.7234C876.346 47.0081 884.085 46.0883 891.713 45.0664C895.526 44.5555 899.34 43.9423 903.154 43.3292C906.967 42.716 910.669 42.0007 914.482 41.2853C917.286 43.6357 920.09 45.7818 923.007 47.9278C925.923 50.0738 928.839 52.2198 931.868 54.2637C937.813 58.4535 943.982 62.439 950.151 66.2201C956.32 70.0012 962.601 73.7822 968.994 77.2568C972.023 78.8918 975.051 80.5269 978.08 82.1619H978.529Z" fill="#5B6A87"/>
<path d="M978.529 79.7094C975.724 78.2787 972.808 76.7458 970.004 75.3151C963.835 72.045 957.554 68.6727 951.385 65.3003C945.215 61.8258 939.159 58.3513 933.102 54.7746C929.064 55.1834 925.138 55.5921 921.1 55.8987C917.062 56.2053 913.024 56.5119 908.986 56.7163C900.91 57.2272 892.834 57.5338 884.758 57.8404C868.607 58.3513 852.343 58.4535 836.079 58.1469C803.551 57.636 770.911 55.6943 738.271 52.322C721.895 50.5848 705.631 48.5409 689.367 46.0883C673.103 43.6357 656.839 40.8766 640.575 37.6064C608.159 31.1684 575.968 23.1974 544.225 13.4892C530.765 9.40158 517.418 4.90516 504.182 0.204346H502.836C516.408 5.10954 530.205 9.70816 544.001 13.898C575.744 23.6062 607.935 31.5771 640.351 38.0152C656.502 41.1831 672.766 44.0445 689.143 46.4971C705.406 48.9497 721.783 50.9935 738.047 52.6286C770.687 56.0009 803.327 57.9426 835.854 58.4535C852.118 58.6579 868.382 58.5557 884.534 58.0447C892.61 57.7382 900.686 57.4316 908.762 56.9206C912.8 56.7163 916.838 56.4097 920.876 56.1031C924.914 55.7965 928.839 55.49 932.877 54.979C938.934 58.5557 944.991 62.0302 951.16 65.5047C957.329 68.877 963.498 72.2494 969.78 75.5195C972.696 77.0524 975.612 78.4831 978.416 80.0159V79.7094H978.529Z" fill="#5B6A87"/>
<path d="M978.529 94.5272C965.181 89.111 951.833 83.4905 938.598 77.6656C931.868 74.702 925.138 71.7384 918.408 68.6727C911.678 65.6069 904.948 62.5412 898.331 59.2711C882.964 62.5412 867.373 64.9938 851.558 66.4245C835.742 67.9574 819.927 68.4683 804 68.3661C796.036 68.2639 788.072 67.9574 780.108 67.5486L774.164 67.1398L768.219 66.7311C766.2 66.6289 764.293 66.4245 762.274 66.2201L759.246 65.9135C758.236 65.8113 757.227 65.7091 756.217 65.6069L753.189 65.3004C752.179 65.1982 751.17 65.096 750.16 64.9938L744.216 64.2785C742.197 64.0741 740.29 63.7675 738.271 63.5631C736.252 63.3587 734.345 63.0522 732.326 62.7456C730.307 62.439 728.4 62.2346 726.381 61.8259C724.362 61.5193 722.456 61.2127 720.437 60.9061L714.492 59.8842C713.482 59.6798 712.473 59.5777 711.576 59.3733L708.659 58.8623C677.029 53.1396 645.847 45.2708 615.114 35.6648C584.38 26.0588 554.096 14.92 524.26 2.55479C522.241 1.73726 520.222 0.817532 518.203 0H517.081C519.437 1.02192 521.792 1.94164 524.035 2.96355C553.871 15.3287 584.156 26.5698 614.889 36.0736C645.622 45.5774 676.804 53.5484 708.435 59.1689L711.351 59.6798C712.361 59.8842 713.37 59.9864 714.268 60.1908L720.212 61.2127C722.231 61.5193 724.138 61.8259 726.157 62.1324C728.176 62.439 730.083 62.7456 732.102 63.0522C734.121 63.3587 736.028 63.6653 738.047 63.8697C740.066 64.0741 741.972 64.3807 743.991 64.585L749.936 65.3004C750.946 65.4026 751.955 65.5048 752.964 65.6069L755.993 65.9135C757.002 66.0157 758.012 66.1179 759.021 66.2201L762.05 66.5267C764.069 66.7311 765.976 66.9354 767.995 67.0376L773.939 67.4464L779.884 67.8552C787.848 68.2639 795.812 68.5705 803.775 68.6727C819.703 68.7749 835.63 68.2639 851.333 66.7311C867.036 65.3004 882.74 62.8478 898.106 59.4755C904.724 62.6434 911.454 65.8113 918.184 68.8771C924.914 71.9428 931.644 74.9064 938.486 77.8699C951.721 83.6949 965.069 89.3154 978.529 94.7315V94.5272Z" fill="#5B6A87"/>
<path d="M978.529 93.1987C967.312 88.2935 956.208 83.1839 945.103 77.8699C938.598 74.702 931.98 71.4319 925.587 68.0595C922.334 66.4245 919.081 64.6872 915.94 62.95C912.688 61.2127 909.547 59.4755 906.406 57.636H906.294H906.182C904.275 58.3514 902.368 58.9645 900.462 59.5777C899.564 59.8842 898.555 60.1908 897.545 60.3952C896.536 60.7018 895.639 60.9061 894.629 61.2127C890.703 62.2346 886.89 63.1544 882.964 64.0741C875.112 65.7091 867.149 67.1398 859.185 68.1617L856.156 68.5705C855.147 68.6727 854.137 68.8771 853.128 68.9793C851.109 69.1837 849.09 69.388 847.071 69.5924L841.014 70.1034L834.957 70.5121C826.881 71.0231 818.805 71.3297 810.617 71.5341C806.579 71.5341 802.429 71.6363 798.391 71.5341H795.363H793.793H792.222L786.165 71.3297H784.595L783.025 71.2275L779.996 71.1253L776.968 71.0231L775.398 70.9209C774.837 70.9209 774.388 70.8187 773.827 70.8187L767.77 70.41C766.761 70.3078 765.751 70.3078 764.742 70.2056L761.713 70.0012C745.449 68.6727 729.186 66.7311 713.034 64.1763C680.618 59.0667 648.539 51.6067 617.02 42.5117C601.205 38.0152 585.502 32.9057 569.911 27.4895L564.078 25.4457L561.162 24.4238C560.153 24.1172 559.255 23.7084 558.246 23.4019L546.581 19.1098L545.123 18.5989C544.674 18.3945 544.113 18.1901 543.664 18.0879L540.748 16.9638L535.028 14.7156L529.307 12.4674C527.4 11.752 525.494 10.9345 523.587 10.117L512.146 5.51834L500.705 0.715341C500.144 0.510958 499.584 0.204383 499.023 0H497.901C498.798 0.408766 499.584 0.715341 500.481 1.12411L511.922 5.92711L523.363 10.5257C525.269 11.3433 527.176 12.0586 529.083 12.8761L534.916 15.1243L540.636 17.3726L543.552 18.4967C544.001 18.701 544.562 18.9054 545.01 19.0076L546.469 19.5186L558.134 23.8106C559.143 24.1172 560.041 24.526 561.05 24.8325L563.966 25.8545L569.799 27.8983C585.39 33.3144 601.093 38.3218 616.908 42.9204C648.539 52.0155 680.618 59.4755 713.034 64.585C729.186 67.1398 745.449 69.0815 761.826 70.3078L764.854 70.5121C765.864 70.6143 766.873 70.6143 767.882 70.7165L773.939 71.1253C774.5 71.1253 774.949 71.2275 775.51 71.2275L777.08 71.3297L780.108 71.4319L783.137 71.5341L784.707 71.6363H786.278L792.335 71.8406H793.905H795.475H798.504C802.542 71.9428 806.692 71.8406 810.73 71.8406C818.805 71.7384 826.993 71.4319 835.069 70.8187L841.126 70.41L847.183 69.899C849.202 69.6946 851.221 69.4902 853.24 69.2859C854.25 69.1837 855.259 69.0815 856.269 68.8771L859.297 68.4683C867.261 67.4464 875.225 66.0157 883.188 64.3807C887.114 63.5631 891.04 62.6434 894.966 61.5193C895.975 61.2127 896.872 61.0083 897.882 60.7018C898.891 60.3952 899.789 60.1908 900.798 59.8842C902.705 59.2711 904.612 58.6579 906.406 57.9426C909.547 59.782 912.688 61.5193 915.94 63.1544C919.193 64.8916 922.334 66.5267 925.587 68.2639C932.092 71.6363 938.598 74.9064 945.103 78.0743C956.208 83.3883 967.312 88.4979 978.641 93.4031V93.1987H978.529Z" fill="#5B6A87"/>
<path fill-rule="evenodd" clip-rule="evenodd" d="M900.35 344.181V343.875V342.342L733.784 335.801L728.064 337.845L904.836 344.794L900.35 344.181Z" fill="url(#paint1_linear_568_951)"/>
<path fill-rule="evenodd" clip-rule="evenodd" d="M978.529 355.831C971.799 354.707 944.991 349.495 969.668 343.568C948.468 346.225 927.83 349.904 911.566 355.013C910.22 355.422 942.187 355.831 978.416 356.035V355.831H978.529Z" fill="#C4C4C4"/>
<path fill-rule="evenodd" clip-rule="evenodd" d="M978.529 351.334L935.345 349.086L869.728 358.897C901.022 360.021 941.29 360.43 978.529 360.225V351.334Z" fill="#C4C4C4"/>
<path fill-rule="evenodd" clip-rule="evenodd" d="M775.846 286.341C779.099 305.246 786.053 326.093 792.559 335.699H797.943C797.943 335.699 814.543 314.341 818.357 291.45C818.357 291.45 806.243 304.735 796.933 324.458C796.933 324.458 805.121 306.37 804.112 287.26C804.112 287.26 793.905 305.246 793.905 328.954C793.905 328.954 792.11 320.984 786.165 307.29C778.875 290.53 775.846 286.341 775.846 286.341Z" fill="#AFAFAF"/>
<path fill-rule="evenodd" clip-rule="evenodd" d="M818.469 291.45L795.363 328.852C795.363 328.852 805.009 306.881 818.469 291.45Z" fill="#999999"/>
<path fill-rule="evenodd" clip-rule="evenodd" d="M806.916 304.837C806.916 304.837 805.346 320.473 792.559 335.699H789.755C789.642 335.597 789.418 335.392 788.857 335.086C787.96 334.473 786.614 333.451 784.932 332.02C780.557 328.137 774.612 320.779 774.164 308.414C774.164 308.107 774.164 307.699 774.164 307.392C774.164 307.392 786.726 321.597 790.876 333.349C790.764 332.838 788.072 319.655 789.867 301.669C789.867 301.669 796.821 311.991 794.466 327.83C794.802 326.604 797.27 312.808 806.916 304.837Z" fill="#888888"/>
<path fill-rule="evenodd" clip-rule="evenodd" d="M830.583 311.48C830.246 311.991 820.376 328.852 798.391 336.108L794.802 336.414H794.69C815.553 318.735 830.583 311.48 830.583 311.48Z" fill="#999999"/>
<path fill-rule="evenodd" clip-rule="evenodd" d="M790.764 335.699H789.867C789.867 335.699 789.53 335.393 788.97 335.086C788.072 334.473 786.726 333.349 785.044 332.02C780.669 328.137 774.725 320.779 774.276 308.414C781.23 327.83 790.764 335.699 790.764 335.699Z" fill="#B3B3B3"/>
<path fill-rule="evenodd" clip-rule="evenodd" d="M830.583 311.48C830.246 311.991 820.376 328.852 798.391 336.108L794.802 336.414C795.251 336.21 795.699 335.903 796.372 335.699C808.935 330.589 830.358 311.684 830.583 311.48Z" fill="#B3B3B3"/>
<path fill-rule="evenodd" clip-rule="evenodd" d="M792.559 333.553C793.905 320.575 790.091 301.567 790.091 301.567C790.091 301.567 797.045 311.888 794.69 327.728C794.914 326.502 797.382 312.706 807.028 304.837C801.756 319.859 792.559 333.553 792.559 333.553Z" fill="#AFAFAF"/>
<path fill-rule="evenodd" clip-rule="evenodd" d="M838.322 337.028C837.986 337.947 837.649 338.765 837.2 339.582C831.144 340.4 824.301 340.809 816.786 340.706C805.906 340.604 794.914 339.48 784.595 337.539C784.259 336.925 783.922 336.312 783.698 335.699C778.987 323.538 793.12 312.399 813.758 314.545C831.817 316.385 841.575 327.524 838.322 337.028Z" fill="#999999"/>
<path opacity="0.65" fill-rule="evenodd" clip-rule="evenodd" d="M798.391 316.589C776.968 325.275 834.733 345.203 836.415 337.13C840.229 318.735 814.88 309.845 798.391 316.589Z" fill="#A9A9A9"/>
<path fill-rule="evenodd" clip-rule="evenodd" d="M819.254 315.465L816.562 314.954C816.562 314.954 812.3 321.699 812.3 340.604L816.899 340.706C816.786 340.706 816.338 330.385 819.254 315.465Z" fill="#A9A9A9"/>
<path opacity="0.5" fill-rule="evenodd" clip-rule="evenodd" d="M816.562 314.954C816.562 314.954 812.412 326.4 812.3 340.604C812.3 340.604 810.169 334.166 810.842 328.341C811.739 321.699 816.562 314.954 816.562 314.954Z" fill="#F2F2F2"/>
<path opacity="0.5" fill-rule="evenodd" clip-rule="evenodd" d="M808.935 314.341C808.935 314.341 797.382 316.181 794.129 327.217C791.437 336.21 792.447 338.765 792.447 338.765L796.148 339.48C796.148 339.582 791.998 324.969 808.935 314.341Z" fill="#F2F2F2"/>
<path fill-rule="evenodd" clip-rule="evenodd" d="M813.758 314.648L808.935 314.443C808.935 314.443 792.895 322.823 796.148 339.582L801.644 339.991C801.644 339.991 799.962 324.969 813.758 314.648Z" fill="#A9A9A9"/>
<path fill-rule="evenodd" clip-rule="evenodd" d="M821.497 316.078L824.302 316.998C824.302 316.998 836.976 326.604 834.845 339.684L833.163 339.991C833.05 340.093 834.396 324.049 821.497 316.078Z" fill="#A9A9A9"/>
<path opacity="0.5" fill-rule="evenodd" clip-rule="evenodd" d="M821.497 316.078C821.497 316.078 825.311 325.276 825.647 340.502C825.535 340.502 821.273 334.166 821.497 316.078Z" fill="#F2F2F2"/>
<path fill-rule="evenodd" clip-rule="evenodd" d="M829.685 340.298L825.535 340.502C825.535 340.502 825.311 329.057 821.385 316.078L823.068 317.202C823.18 317.305 829.237 331.816 829.685 340.298Z" fill="#A9A9A9"/>
<path fill-rule="evenodd" clip-rule="evenodd" d="M86.7326 254.833C86.3161 256.35 85.7955 257.678 85.1708 258.817C82.3595 263.939 65.8043 267.829 58.4118 268.208C55.8087 298.849 52.2686 337.647 49.3533 368.667C46.542 398.929 44.3555 421.601 44.3555 421.601L25.822 419.229C26.3426 414.771 26.8632 409.363 27.3838 403.197C29.4662 381.853 32.0692 351.782 34.464 322.849C25.0931 321.711 13.9522 322.659 11.6616 316.778C8.95442 309.758 14.0563 266.975 14.0563 266.975C16.4511 265.837 19.0541 265.552 21.1365 265.552C23.7396 265.552 25.7179 265.932 25.7179 265.932C26.6549 271.434 22.9066 286.801 23.4272 302.454C23.4272 303.402 23.5313 304.351 23.5313 305.299C23.9478 310.991 27.9044 310.991 31.1321 310.612C34.2558 310.232 35.6093 308.335 35.6093 308.335C39.0453 267.26 43.0019 209.678 43.0019 209.678C49.0409 204.176 62.5766 210.152 62.5766 210.152L61.0148 234.247C60.5983 240.319 60.0777 247.718 59.3488 256.066C61.6395 255.876 65.7002 255.212 68.3032 253.03C72.1557 249.805 74.4463 219.069 74.4463 219.069C74.4463 219.069 84.546 216.318 89.4397 219.923C89.5438 219.828 88.7109 247.813 86.7326 254.833Z" fill="#999999"/>
<path fill-rule="evenodd" clip-rule="evenodd" d="M120.676 297.046C120.676 297.046 111.618 336.794 109.431 341.632C109.431 341.632 109.431 341.632 109.431 341.727C108.702 343.244 106.62 344.288 103.913 344.857C98.6024 345.995 90.6893 345.521 83.9214 343.434L82.7761 348.841L67.0539 423.972C67.0539 423.972 65.5962 423.972 63.2014 423.783C61.5355 423.593 59.4531 423.403 57.1624 422.929C55.913 422.644 54.5594 422.36 53.2058 422.075L75.2794 329.679C72.6764 329.015 68.8239 327.782 67.5745 326.549C65.5962 324.557 71.4269 297.71 72.5723 294.77C72.7805 294.295 73.7176 293.916 74.7588 293.821C75.5918 293.726 76.4247 293.821 77.1536 294.011C78.0907 294.201 78.7154 294.675 78.7154 295.244C78.7154 295.244 77.8824 300.177 75.9041 311.94C75.1753 316.493 74.7588 320.098 74.967 321.236C74.967 321.426 75.0712 321.521 75.0712 321.616C75.4876 321.995 76.3206 322.375 77.0495 322.375L85.3791 287.37C85.4832 286.896 85.8997 286.612 86.4203 286.612C87.045 286.612 87.7739 286.517 88.8151 286.517C91.0016 286.612 93.8129 286.991 95.4788 288.509L85.3791 336.035C89.4398 337.742 97.2489 340.493 100.372 337.363C104.746 333.094 109.847 297.616 111.618 295.434C111.618 295.434 112.138 295.339 113.075 295.339C114.221 295.244 115.886 295.244 117.344 295.529C118.698 295.718 120.051 296.193 120.676 297.046Z" fill="#AFAFAF"/>
<path opacity="0.65" fill-rule="evenodd" clip-rule="evenodd" d="M86.7326 254.833C84.7543 255.307 81.0059 250.943 81.1101 249.141C81.5265 241.742 82.4636 218.121 82.4636 218.121C87.0449 217.931 89.5438 219.828 89.5438 219.828C89.5438 219.828 88.9191 246.2 86.7326 254.833Z" fill="#A9A9A9"/>
<path fill-rule="evenodd" clip-rule="evenodd" d="M63.0972 423.877C64.3466 418.755 81.0059 342.96 81.0059 342.96L83.8172 343.529L66.9496 424.162C66.9496 424.067 65.4919 424.067 63.0972 423.877Z" fill="#DCD951"/>
<path opacity="0.5" fill-rule="evenodd" clip-rule="evenodd" d="M87.8779 290.121L59.8694 423.308L54.6634 422.644L87.8779 290.121Z" fill="#A9A9A9"/>
<path opacity="0.5" fill-rule="evenodd" clip-rule="evenodd" d="M59.2447 210.817L44.3555 421.506C44.3555 421.506 42.7937 354.343 45.7091 319.434C50.7068 260.43 59.2447 210.817 59.2447 210.817Z" fill="#A9A9A9"/>
<path fill-rule="evenodd" clip-rule="evenodd" d="M120.676 297.046C120.676 297.046 111.618 336.794 109.431 341.632C109.431 341.632 109.431 341.632 109.431 341.727C108.702 343.244 106.62 344.288 103.913 344.857C98.6024 345.995 90.6893 345.521 83.9214 343.434L82.7761 348.841L67.0539 423.972C67.0539 423.972 65.5962 423.972 63.2014 423.783C61.5355 423.593 59.4531 423.403 57.1624 422.929C55.913 422.644 54.5594 422.36 53.2058 422.075L75.2794 329.679C72.6764 329.015 68.8239 327.782 67.5745 326.549C65.5962 324.557 71.4269 297.71 72.5723 294.77C72.7805 294.295 73.7176 293.916 74.7588 293.821C75.5918 293.726 76.4247 293.821 77.1536 294.011C78.0907 294.201 78.7154 294.675 78.7154 295.244C78.7154 295.244 77.8824 300.177 75.9041 311.94C75.1753 316.493 74.7588 320.098 74.967 321.236C74.967 321.426 75.0712 321.521 75.0712 321.616C75.4876 321.995 76.3206 322.375 77.0495 322.375L85.3791 287.37C85.4832 286.896 85.8997 286.612 86.4203 286.612C87.045 286.612 87.7739 286.517 88.8151 286.517C91.0016 286.612 93.8129 286.991 95.4788 288.509L85.3791 336.035C89.4398 337.742 97.2489 340.493 100.372 337.363C104.746 333.094 109.847 297.616 111.618 295.434C111.618 295.434 112.138 295.339 113.075 295.339C114.221 295.244 115.886 295.244 117.344 295.529C118.698 295.718 120.051 296.193 120.676 297.046Z" fill="#999999"/>
<path fill-rule="evenodd" clip-rule="evenodd" d="M96.4157 429C101.413 416.478 111.201 390.012 111.721 367.719C111.721 367.719 97.4569 398.549 91.3138 425.49C91.1055 426.723 90.8973 427.956 90.6891 429H96.4157Z" fill="#999999"/>
<path fill-rule="evenodd" clip-rule="evenodd" d="M90.5851 429C90.7933 427.862 91.1057 426.629 91.3139 425.49C93.3963 413.443 96.1035 393.711 94.9581 379.766C94.9581 379.766 84.1296 403.387 84.9625 429H90.5851Z" fill="#999999"/>
<path fill-rule="evenodd" clip-rule="evenodd" d="M89.2314 429L48.312 377.679H34.7763L20.8241 389.253V350.928L6.76784 349.505L0 354.248V429H89.2314Z" fill="#A9A9A9"/>
<path fill-rule="evenodd" clip-rule="evenodd" d="M34.568 429L39.0452 420.842L60.0776 422.834L47.2707 423.213L74.5504 426.534L76.9451 429H89.2314L48.312 377.679L34.7763 412.968L27.2796 429H34.568Z" fill="#DBDBDB"/>
<path fill-rule="evenodd" clip-rule="evenodd" d="M20.8241 350.928L4.1648 387.166L2.08238 403.482L20.8241 389.253V350.928Z" fill="#DBDBDB"/>
<path d="M90.6509 117.398H85.1712L72.7634 98.6492V117.398H67.2837V90.0382H72.7634L85.1712 108.826V90.0382H90.6509V117.398ZM105.695 117.75C103.607 117.75 101.729 117.293 100.059 116.38C98.3885 115.441 97.0708 114.123 96.1053 112.427C95.1659 110.731 94.6962 108.774 94.6962 106.556C94.6962 104.338 95.179 102.381 96.1444 100.685C97.136 98.9884 98.4799 97.6837 100.176 96.7704C101.872 95.8311 103.764 95.3614 105.851 95.3614C107.939 95.3614 109.831 95.8311 111.527 96.7704C113.223 97.6837 114.554 98.9884 115.519 100.685C116.511 102.381 117.007 104.338 117.007 106.556C117.007 108.774 116.498 110.731 115.48 112.427C114.489 114.123 113.132 115.441 111.409 116.38C109.713 117.293 107.809 117.75 105.695 117.75ZM105.695 112.975C106.686 112.975 107.613 112.74 108.474 112.27C109.361 111.775 110.066 111.044 110.588 110.078C111.109 109.113 111.37 107.939 111.37 106.556C111.37 104.494 110.822 102.916 109.726 101.82C108.657 100.698 107.339 100.137 105.773 100.137C104.208 100.137 102.89 100.698 101.82 101.82C100.776 102.916 100.254 104.494 100.254 106.556C100.254 108.617 100.763 110.209 101.781 111.331C102.825 112.427 104.129 112.975 105.695 112.975ZM150.276 98.5318C150.276 99.9931 149.923 101.363 149.219 102.642C148.54 103.92 147.458 104.951 145.97 105.734C144.509 106.517 142.656 106.908 140.412 106.908H135.833V117.398H130.353V90.0773H140.412C142.526 90.0773 144.326 90.4426 145.814 91.1733C147.301 91.9039 148.41 92.9085 149.141 94.1871C149.897 95.4657 150.276 96.914 150.276 98.5318ZM140.177 102.485C141.691 102.485 142.813 102.146 143.543 101.467C144.274 100.763 144.639 99.7843 144.639 98.5318C144.639 95.8702 143.152 94.5394 140.177 94.5394H135.833V102.485H140.177ZM159.646 99.0798C160.351 97.9316 161.264 97.0314 162.386 96.379C163.534 95.7267 164.839 95.4005 166.3 95.4005V101.154H164.852C163.13 101.154 161.825 101.559 160.938 102.368C160.077 103.177 159.646 104.586 159.646 106.595V117.398H154.166V95.7136H159.646V99.0798ZM179.62 117.75C177.532 117.75 175.653 117.293 173.983 116.38C172.313 115.441 170.996 114.123 170.03 112.427C169.091 110.731 168.621 108.774 168.621 106.556C168.621 104.338 169.104 102.381 170.069 100.685C171.061 98.9884 172.405 97.6837 174.101 96.7704C175.797 95.8311 177.689 95.3614 179.776 95.3614C181.864 95.3614 183.756 95.8311 185.452 96.7704C187.148 97.6837 188.479 98.9884 189.444 100.685C190.436 102.381 190.931 104.338 190.931 106.556C190.931 108.774 190.423 110.731 189.405 112.427C188.413 114.123 187.056 115.441 185.334 116.38C183.638 117.293 181.733 117.75 179.62 117.75ZM179.62 112.975C180.611 112.975 181.538 112.74 182.399 112.27C183.286 111.775 183.99 111.044 184.512 110.078C185.034 109.113 185.295 107.939 185.295 106.556C185.295 104.494 184.747 102.916 183.651 101.82C182.581 100.698 181.264 100.137 179.698 100.137C178.132 100.137 176.815 100.698 175.745 101.82C174.701 102.916 174.179 104.494 174.179 106.556C174.179 108.617 174.688 110.209 175.706 111.331C176.749 112.427 178.054 112.975 179.62 112.975ZM200.431 98.8449C201.135 97.8533 202.101 97.0314 203.327 96.379C204.58 95.7006 206.002 95.3614 207.594 95.3614C209.446 95.3614 211.116 95.818 212.604 96.7313C214.117 97.6446 215.304 98.9493 216.166 100.645C217.053 102.315 217.496 104.259 217.496 106.477C217.496 108.695 217.053 110.666 216.166 112.388C215.304 114.084 214.117 115.402 212.604 116.341C211.116 117.28 209.446 117.75 207.594 117.75C206.002 117.75 204.593 117.424 203.366 116.772C202.166 116.119 201.188 115.297 200.431 114.306V127.731H194.951V95.7136H200.431V98.8449ZM211.899 106.477C211.899 105.173 211.625 104.051 211.077 103.111C210.555 102.146 209.851 101.415 208.964 100.919C208.102 100.424 207.163 100.176 206.145 100.176C205.154 100.176 204.214 100.437 203.327 100.959C202.466 101.454 201.762 102.185 201.214 103.15C200.692 104.116 200.431 105.251 200.431 106.556C200.431 107.86 200.692 108.996 201.214 109.961C201.762 110.926 202.466 111.67 203.327 112.192C204.214 112.688 205.154 112.936 206.145 112.936C207.163 112.936 208.102 112.675 208.964 112.153C209.851 111.631 210.555 110.887 211.077 109.922C211.625 108.956 211.899 107.808 211.899 106.477ZM241.636 106.086C241.636 106.869 241.584 107.573 241.479 108.2H225.627C225.758 109.765 226.306 110.992 227.271 111.879C228.237 112.766 229.424 113.21 230.833 113.21C232.868 113.21 234.317 112.336 235.178 110.587H241.088C240.462 112.675 239.261 114.397 237.487 115.754C235.713 117.085 233.534 117.75 230.951 117.75C228.863 117.75 226.984 117.293 225.314 116.38C223.67 115.441 222.379 114.123 221.439 112.427C220.526 110.731 220.069 108.774 220.069 106.556C220.069 104.312 220.526 102.342 221.439 100.645C222.353 98.9493 223.631 97.6446 225.275 96.7313C226.919 95.818 228.811 95.3614 230.951 95.3614C233.012 95.3614 234.852 95.805 236.469 96.6922C238.113 97.5794 239.379 98.8449 240.266 100.489C241.179 102.107 241.636 103.972 241.636 106.086ZM235.961 104.52C235.934 103.111 235.426 101.989 234.434 101.154C233.443 100.293 232.229 99.8626 230.794 99.8626C229.437 99.8626 228.289 100.28 227.35 101.115C226.436 101.924 225.875 103.059 225.666 104.52H235.961ZM251.116 99.0798C251.82 97.9316 252.733 97.0314 253.855 96.379C255.004 95.7267 256.308 95.4005 257.77 95.4005V101.154H256.321C254.599 101.154 253.294 101.559 252.407 102.368C251.546 103.177 251.116 104.586 251.116 106.595V117.398H245.636V95.7136H251.116V99.0798ZM267.84 100.215V110.705C267.84 111.435 268.01 111.97 268.349 112.309C268.715 112.623 269.315 112.779 270.15 112.779H272.694V117.398H269.25C264.631 117.398 262.322 115.154 262.322 110.666V100.215H259.738V95.7136H262.322V90.3513H267.84V95.7136H272.694V100.215H267.84ZM279.414 93.1303C278.449 93.1303 277.64 92.8302 276.988 92.2301C276.361 91.6038 276.048 90.834 276.048 89.9207C276.048 89.0074 276.361 88.2507 276.988 87.6506C277.64 87.0243 278.449 86.7112 279.414 86.7112C280.38 86.7112 281.176 87.0243 281.802 87.6506C282.454 88.2507 282.78 89.0074 282.78 89.9207C282.78 90.834 282.454 91.6038 281.802 92.2301C281.176 92.8302 280.38 93.1303 279.414 93.1303ZM282.115 95.7136V117.398H276.635V95.7136H282.115ZM307.687 106.086C307.687 106.869 307.635 107.573 307.53 108.2H291.678C291.808 109.765 292.356 110.992 293.322 111.879C294.287 112.766 295.475 113.21 296.884 113.21C298.919 113.21 300.367 112.336 301.228 110.587H307.139C306.512 112.675 305.312 114.397 303.538 115.754C301.763 117.085 299.585 117.75 297.001 117.75C294.914 117.75 293.035 117.293 291.365 116.38C289.721 115.441 288.429 114.123 287.49 112.427C286.577 110.731 286.12 108.774 286.12 106.556C286.12 104.312 286.577 102.342 287.49 100.645C288.403 98.9493 289.682 97.6446 291.326 96.7313C292.97 95.818 294.861 95.3614 297.001 95.3614C299.063 95.3614 300.902 95.805 302.52 96.6922C304.164 97.5794 305.43 98.8449 306.317 100.489C307.23 102.107 307.687 103.972 307.687 106.086ZM302.011 104.52C301.985 103.111 301.476 101.989 300.485 101.154C299.493 100.293 298.28 99.8626 296.845 99.8626C295.488 99.8626 294.34 100.28 293.4 101.115C292.487 101.924 291.926 103.059 291.717 104.52H302.011ZM319.984 117.75C318.21 117.75 316.618 117.437 315.209 116.811C313.8 116.158 312.678 115.284 311.843 114.188C311.034 113.092 310.591 111.879 310.512 110.548H316.031C316.136 111.383 316.54 112.075 317.244 112.623C317.975 113.171 318.875 113.445 319.945 113.445C320.989 113.445 321.798 113.236 322.372 112.818C322.972 112.401 323.272 111.866 323.272 111.214C323.272 110.509 322.907 109.987 322.176 109.648C321.472 109.283 320.337 108.891 318.771 108.474C317.153 108.082 315.822 107.678 314.779 107.26C313.761 106.843 312.874 106.203 312.117 105.342C311.386 104.481 311.021 103.32 311.021 101.859C311.021 100.658 311.36 99.5625 312.039 98.5709C312.743 97.5794 313.735 96.7965 315.013 96.2225C316.318 95.6484 317.845 95.3614 319.593 95.3614C322.176 95.3614 324.238 96.0137 325.777 97.3184C327.317 98.597 328.165 100.332 328.321 102.524H323.077C322.998 101.663 322.633 100.985 321.981 100.489C321.354 99.967 320.506 99.706 319.436 99.706C318.445 99.706 317.675 99.8887 317.127 100.254C316.605 100.619 316.344 101.128 316.344 101.781C316.344 102.511 316.71 103.072 317.44 103.464C318.171 103.829 319.306 104.207 320.845 104.599C322.411 104.99 323.703 105.395 324.72 105.812C325.738 106.23 326.612 106.882 327.343 107.769C328.1 108.63 328.491 109.778 328.517 111.214C328.517 112.466 328.165 113.588 327.46 114.58C326.782 115.571 325.79 116.354 324.486 116.928C323.207 117.476 321.707 117.75 319.984 117.75ZM359.212 90.0773V94.5003H347.822V101.507H356.55V105.851H347.822V117.398H342.342V90.0773H359.212ZM372.726 117.75C370.639 117.75 368.76 117.293 367.09 116.38C365.42 115.441 364.102 114.123 363.137 112.427C362.197 110.731 361.727 108.774 361.727 106.556C361.727 104.338 362.21 102.381 363.176 100.685C364.167 98.9884 365.511 97.6837 367.207 96.7704C368.903 95.8311 370.795 95.3614 372.883 95.3614C374.97 95.3614 376.862 95.8311 378.558 96.7704C380.254 97.6837 381.585 98.9884 382.551 100.685C383.542 102.381 384.038 104.338 384.038 106.556C384.038 108.774 383.529 110.731 382.511 112.427C381.52 114.123 380.163 115.441 378.441 116.38C376.745 117.293 374.84 117.75 372.726 117.75ZM372.726 112.975C373.718 112.975 374.644 112.74 375.505 112.27C376.392 111.775 377.097 111.044 377.619 110.078C378.141 109.113 378.402 107.939 378.402 106.556C378.402 104.494 377.854 102.916 376.758 101.82C375.688 100.698 374.37 100.137 372.804 100.137C371.239 100.137 369.921 100.698 368.851 101.82C367.807 102.916 367.286 104.494 367.286 106.556C367.286 108.617 367.794 110.209 368.812 111.331C369.856 112.427 371.161 112.975 372.726 112.975ZM408.528 95.7136V117.398H403.009V114.658C402.305 115.597 401.379 116.341 400.23 116.889C399.108 117.411 397.882 117.672 396.551 117.672C394.855 117.672 393.355 117.32 392.05 116.615C390.745 115.884 389.715 114.828 388.958 113.445C388.227 112.035 387.862 110.365 387.862 108.435V95.7136H393.342V107.652C393.342 109.374 393.772 110.705 394.633 111.644C395.494 112.557 396.669 113.014 398.156 113.014C399.669 113.014 400.857 112.557 401.718 111.644C402.579 110.705 403.009 109.374 403.009 107.652V95.7136H408.528ZM425.951 95.4005C428.535 95.4005 430.622 96.2225 432.214 97.8664C433.806 99.4842 434.602 101.754 434.602 104.677V117.398H429.122V105.421C429.122 103.698 428.691 102.381 427.83 101.467C426.969 100.528 425.795 100.058 424.307 100.058C422.794 100.058 421.594 100.528 420.706 101.467C419.845 102.381 419.415 103.698 419.415 105.421V117.398H413.935V95.7136H419.415V98.4144C420.145 97.475 421.072 96.7443 422.194 96.2225C423.342 95.6745 424.594 95.4005 425.951 95.4005ZM438.403 106.477C438.403 104.286 438.834 102.342 439.695 100.645C440.582 98.9493 441.783 97.6446 443.296 96.7313C444.81 95.818 446.493 95.3614 448.345 95.3614C449.754 95.3614 451.098 95.6745 452.377 96.3007C453.655 96.9009 454.673 97.7098 455.43 98.7275V88.4334H460.988V117.398H455.43V114.188C454.751 115.258 453.799 116.119 452.573 116.772C451.346 117.424 449.924 117.75 448.306 117.75C446.48 117.75 444.81 117.28 443.296 116.341C441.783 115.402 440.582 114.084 439.695 112.388C438.834 110.666 438.403 108.695 438.403 106.477ZM455.469 106.556C455.469 105.225 455.208 104.09 454.686 103.15C454.164 102.185 453.46 101.454 452.573 100.959C451.685 100.437 450.733 100.176 449.715 100.176C448.698 100.176 447.758 100.424 446.897 100.919C446.036 101.415 445.331 102.146 444.783 103.111C444.262 104.051 444.001 105.173 444.001 106.477C444.001 107.782 444.262 108.93 444.783 109.922C445.331 110.887 446.036 111.631 446.897 112.153C447.784 112.675 448.724 112.936 449.715 112.936C450.733 112.936 451.685 112.688 452.573 112.192C453.46 111.67 454.164 110.94 454.686 110C455.208 109.035 455.469 107.887 455.469 106.556ZM473.424 89.6076L472.798 108.513H468.179L467.514 89.6076H473.424ZM470.606 117.672C469.615 117.672 468.793 117.372 468.14 116.772C467.514 116.145 467.201 115.376 467.201 114.462C467.201 113.549 467.514 112.792 468.14 112.192C468.793 111.566 469.615 111.253 470.606 111.253C471.572 111.253 472.368 111.566 472.994 112.192C473.62 112.792 473.933 113.549 473.933 114.462C473.933 115.376 473.62 116.145 472.994 116.772C472.368 117.372 471.572 117.672 470.606 117.672Z" fill="#394B57"/>
<path d="M74.3682 158.707H72.9435L67.2132 150.018V158.707H65.7885V147.779H67.2132L72.9435 156.452V147.779H74.3682V158.707ZM80.5388 158.848C79.7351 158.848 79.0045 158.665 78.3469 158.3C77.6998 157.935 77.1883 157.418 76.8126 156.75C76.4472 156.071 76.2646 155.289 76.2646 154.401C76.2646 153.525 76.4525 152.752 76.8282 152.084C77.2144 151.406 77.7363 150.889 78.3939 150.534C79.0514 150.169 79.7873 149.986 80.6014 149.986C81.4156 149.986 82.1514 150.169 82.809 150.534C83.4666 150.889 83.9832 151.401 84.359 152.069C84.7452 152.737 84.9383 153.514 84.9383 154.401C84.9383 155.289 84.74 156.071 84.3433 156.75C83.9571 157.418 83.43 157.935 82.762 158.3C82.094 158.665 81.3529 158.848 80.5388 158.848ZM80.5388 157.595C81.0502 157.595 81.5304 157.475 81.9792 157.235C82.428 156.995 82.7881 156.635 83.0595 156.155C83.3413 155.675 83.4822 155.09 83.4822 154.401C83.4822 153.712 83.3465 153.128 83.0751 152.648C82.8038 152.168 82.4489 151.813 82.0105 151.583C81.5721 151.343 81.0972 151.223 80.5858 151.223C80.0639 151.223 79.5838 151.343 79.1454 151.583C78.7174 151.813 78.373 152.168 78.1121 152.648C77.8511 153.128 77.7206 153.712 77.7206 154.401C77.7206 155.101 77.8459 155.69 78.0964 156.171C78.3573 156.651 78.7018 157.011 79.1297 157.251C79.5577 157.48 80.0274 157.595 80.5388 157.595ZM92.4103 151.708C92.6921 151.218 93.1096 150.811 93.6628 150.487C94.2265 150.153 94.8788 149.986 95.6199 149.986C96.3818 149.986 97.0707 150.169 97.6865 150.534C98.3128 150.9 98.8034 151.416 99.1582 152.084C99.5131 152.742 99.6906 153.509 99.6906 154.386C99.6906 155.252 99.5131 156.024 99.1582 156.703C98.8034 157.381 98.3128 157.908 97.6865 158.284C97.0707 158.66 96.3818 158.848 95.6199 158.848C94.8893 158.848 94.2421 158.686 93.6785 158.362C93.1253 158.028 92.7026 157.616 92.4103 157.126V162.778H90.9856V150.127H92.4103V151.708ZM98.2345 154.386C98.2345 153.739 98.104 153.175 97.8431 152.695C97.5822 152.215 97.2273 151.849 96.7785 151.599C96.3401 151.348 95.8547 151.223 95.3224 151.223C94.8005 151.223 94.3152 151.354 93.8664 151.615C93.428 151.865 93.0731 152.236 92.8017 152.726C92.5408 153.206 92.4103 153.765 92.4103 154.401C92.4103 155.049 92.5408 155.617 92.8017 156.108C93.0731 156.588 93.428 156.959 93.8664 157.22C94.3152 157.47 94.8005 157.595 95.3224 157.595C95.8547 157.595 96.3401 157.47 96.7785 157.22C97.2273 156.959 97.5822 156.588 97.8431 156.108C98.104 155.617 98.2345 155.043 98.2345 154.386ZM102.991 151.521C103.241 151.03 103.596 150.649 104.055 150.378C104.525 150.106 105.094 149.971 105.762 149.971V151.442H105.386C103.789 151.442 102.991 152.309 102.991 154.041V158.707H101.566V150.127H102.991V151.521ZM111.148 158.848C110.345 158.848 109.614 158.665 108.956 158.3C108.309 157.935 107.798 157.418 107.422 156.75C107.057 156.071 106.874 155.289 106.874 154.401C106.874 153.525 107.062 152.752 107.438 152.084C107.824 151.406 108.346 150.889 109.003 150.534C109.661 150.169 110.397 149.986 111.211 149.986C112.025 149.986 112.761 150.169 113.419 150.534C114.076 150.889 114.593 151.401 114.969 152.069C115.355 152.737 115.548 153.514 115.548 154.401C115.548 155.289 115.35 156.071 114.953 156.75C114.567 157.418 114.04 157.935 113.372 158.3C112.704 158.665 111.963 158.848 111.148 158.848ZM111.148 157.595C111.66 157.595 112.14 157.475 112.589 157.235C113.038 156.995 113.398 156.635 113.669 156.155C113.951 155.675 114.092 155.09 114.092 154.401C114.092 153.712 113.956 153.128 113.685 152.648C113.413 152.168 113.058 151.813 112.62 151.583C112.182 151.343 111.707 151.223 111.195 151.223C110.673 151.223 110.193 151.343 109.755 151.583C109.327 151.813 108.983 152.168 108.722 152.648C108.461 153.128 108.33 153.712 108.33 154.401C108.33 155.101 108.455 155.69 108.706 156.171C108.967 156.651 109.311 157.011 109.739 157.251C110.167 157.48 110.637 157.595 111.148 157.595ZM118.846 151.708C119.128 151.218 119.545 150.811 120.098 150.487C120.662 150.153 121.314 149.986 122.055 149.986C122.817 149.986 123.506 150.169 124.122 150.534C124.748 150.9 125.239 151.416 125.594 152.084C125.949 152.742 126.126 153.509 126.126 154.386C126.126 155.252 125.949 156.024 125.594 156.703C125.239 157.381 124.748 157.908 124.122 158.284C123.506 158.66 122.817 158.848 122.055 158.848C121.325 158.848 120.678 158.686 120.114 158.362C119.561 158.028 119.138 157.616 118.846 157.126V162.778H117.421V150.127H118.846V151.708ZM124.67 154.386C124.67 153.739 124.54 153.175 124.279 152.695C124.018 152.215 123.663 151.849 123.214 151.599C122.776 151.348 122.29 151.223 121.758 151.223C121.236 151.223 120.751 151.354 120.302 151.615C119.864 151.865 119.509 152.236 119.237 152.726C118.976 153.206 118.846 153.765 118.846 154.401C118.846 155.049 118.976 155.617 119.237 156.108C119.509 156.588 119.864 156.959 120.302 157.22C120.751 157.47 121.236 157.595 121.758 157.595C122.29 157.595 122.776 157.47 123.214 157.22C123.663 156.959 124.018 156.588 124.279 156.108C124.54 155.617 124.67 155.043 124.67 154.386ZM135.83 154.088C135.83 154.36 135.814 154.647 135.783 154.949H128.925C128.977 155.795 129.264 156.458 129.786 156.938C130.319 157.407 130.961 157.642 131.712 157.642C132.328 157.642 132.839 157.501 133.246 157.22C133.664 156.927 133.956 156.541 134.123 156.061H135.657C135.428 156.886 134.969 157.559 134.28 158.081C133.591 158.592 132.735 158.848 131.712 158.848C130.898 158.848 130.167 158.665 129.52 158.3C128.883 157.935 128.382 157.418 128.017 156.75C127.652 156.071 127.469 155.289 127.469 154.401C127.469 153.514 127.647 152.737 128.001 152.069C128.356 151.401 128.852 150.889 129.489 150.534C130.136 150.169 130.877 149.986 131.712 149.986C132.526 149.986 133.246 150.164 133.873 150.519C134.499 150.873 134.979 151.364 135.313 151.99C135.657 152.606 135.83 153.305 135.83 154.088ZM134.358 153.791C134.358 153.248 134.238 152.784 133.998 152.397C133.758 152.001 133.429 151.703 133.012 151.505C132.604 151.296 132.15 151.192 131.649 151.192C130.929 151.192 130.313 151.421 129.802 151.881C129.301 152.34 129.014 152.977 128.941 153.791H134.358ZM139.135 151.521C139.386 151.03 139.74 150.649 140.2 150.378C140.669 150.106 141.238 149.971 141.906 149.971V151.442H141.53C139.934 151.442 139.135 152.309 139.135 154.041V158.707H137.71V150.127H139.135V151.521ZM145.289 151.301V156.358C145.289 156.776 145.377 157.073 145.555 157.251C145.732 157.418 146.04 157.501 146.479 157.501H147.528V158.707H146.244C145.451 158.707 144.856 158.524 144.459 158.159C144.062 157.794 143.864 157.193 143.864 156.358V151.301H142.752V150.127H143.864V147.967H145.289V150.127H147.528V151.301H145.289ZM149.99 148.734C149.718 148.734 149.489 148.64 149.301 148.452C149.113 148.264 149.019 148.034 149.019 147.763C149.019 147.492 149.113 147.262 149.301 147.074C149.489 146.886 149.718 146.792 149.99 146.792C150.251 146.792 150.47 146.886 150.647 147.074C150.835 147.262 150.929 147.492 150.929 147.763C150.929 148.034 150.835 148.264 150.647 148.452C150.47 148.64 150.251 148.734 149.99 148.734ZM150.679 150.127V158.707H149.254V150.127H150.679ZM160.935 154.088C160.935 154.36 160.919 154.647 160.888 154.949H154.031C154.083 155.795 154.37 156.458 154.892 156.938C155.424 157.407 156.066 157.642 156.817 157.642C157.433 157.642 157.945 157.501 158.352 157.22C158.769 156.927 159.062 156.541 159.229 156.061H160.763C160.533 156.886 160.074 157.559 159.385 158.081C158.696 158.592 157.84 158.848 156.817 158.848C156.003 158.848 155.273 158.665 154.626 158.3C153.989 157.935 153.488 157.418 153.123 156.75C152.757 156.071 152.575 155.289 152.575 154.401C152.575 153.514 152.752 152.737 153.107 152.069C153.462 151.401 153.958 150.889 154.594 150.534C155.241 150.169 155.982 149.986 156.817 149.986C157.632 149.986 158.352 150.164 158.978 150.519C159.604 150.873 160.084 151.364 160.418 151.99C160.763 152.606 160.935 153.305 160.935 154.088ZM159.463 153.791C159.463 153.248 159.343 152.784 159.103 152.397C158.863 152.001 158.534 151.703 158.117 151.505C157.71 151.296 157.256 151.192 156.755 151.192C156.035 151.192 155.419 151.421 154.907 151.881C154.406 152.34 154.119 152.977 154.046 153.791H159.463ZM165.853 158.848C165.195 158.848 164.606 158.738 164.084 158.519C163.562 158.289 163.15 157.976 162.847 157.58C162.544 157.173 162.377 156.708 162.346 156.186H163.818C163.859 156.614 164.058 156.964 164.413 157.235C164.778 157.507 165.253 157.642 165.837 157.642C166.38 157.642 166.808 157.522 167.121 157.282C167.434 157.042 167.591 156.739 167.591 156.374C167.591 155.998 167.424 155.722 167.09 155.544C166.756 155.356 166.239 155.174 165.54 154.996C164.903 154.829 164.381 154.662 163.974 154.495C163.578 154.318 163.233 154.062 162.941 153.728C162.659 153.384 162.518 152.935 162.518 152.382C162.518 151.943 162.649 151.541 162.91 151.176C163.171 150.811 163.541 150.524 164.021 150.315C164.501 150.096 165.049 149.986 165.665 149.986C166.615 149.986 167.382 150.226 167.967 150.706C168.551 151.187 168.864 151.844 168.906 152.679H167.481C167.45 152.23 167.267 151.87 166.933 151.599C166.61 151.327 166.171 151.192 165.618 151.192C165.107 151.192 164.7 151.301 164.397 151.521C164.094 151.74 163.943 152.027 163.943 152.382C163.943 152.664 164.032 152.898 164.209 153.086C164.397 153.264 164.627 153.41 164.898 153.525C165.18 153.629 165.566 153.749 166.057 153.885C166.672 154.052 167.173 154.219 167.56 154.386C167.946 154.542 168.275 154.782 168.546 155.106C168.828 155.429 168.974 155.852 168.984 156.374C168.984 156.844 168.854 157.267 168.593 157.642C168.332 158.018 167.961 158.315 167.481 158.535C167.012 158.743 166.469 158.848 165.853 158.848ZM174.637 154.386C174.637 153.509 174.815 152.742 175.17 152.084C175.524 151.416 176.01 150.9 176.626 150.534C177.252 150.169 177.946 149.986 178.708 149.986C179.459 149.986 180.112 150.148 180.665 150.472C181.218 150.795 181.631 151.202 181.902 151.693V150.127H183.342V158.707H181.902V157.11C181.62 157.611 181.197 158.028 180.634 158.362C180.081 158.686 179.433 158.848 178.692 158.848C177.93 158.848 177.241 158.66 176.626 158.284C176.01 157.908 175.524 157.381 175.17 156.703C174.815 156.024 174.637 155.252 174.637 154.386ZM181.902 154.401C181.902 153.754 181.771 153.191 181.51 152.71C181.25 152.23 180.895 151.865 180.446 151.615C180.007 151.354 179.522 151.223 178.99 151.223C178.457 151.223 177.972 151.348 177.534 151.599C177.095 151.849 176.746 152.215 176.485 152.695C176.224 153.175 176.093 153.739 176.093 154.386C176.093 155.043 176.224 155.617 176.485 156.108C176.746 156.588 177.095 156.959 177.534 157.22C177.972 157.47 178.457 157.595 178.99 157.595C179.522 157.595 180.007 157.47 180.446 157.22C180.895 156.959 181.25 156.588 181.51 156.108C181.771 155.617 181.902 155.049 181.902 154.401ZM188.944 157.392L191.605 150.127H193.124L189.758 158.707H188.098L184.732 150.127H186.267L188.944 157.392ZM193.994 154.386C193.994 153.509 194.171 152.742 194.526 152.084C194.881 151.416 195.366 150.9 195.982 150.534C196.608 150.169 197.303 149.986 198.064 149.986C198.816 149.986 199.468 150.148 200.022 150.472C200.575 150.795 200.987 151.202 201.258 151.693V150.127H202.699V158.707H201.258V157.11C200.977 157.611 200.554 158.028 199.99 158.362C199.437 158.686 198.79 158.848 198.049 158.848C197.287 158.848 196.598 158.66 195.982 158.284C195.366 157.908 194.881 157.381 194.526 156.703C194.171 156.024 193.994 155.252 193.994 154.386ZM201.258 154.401C201.258 153.754 201.128 153.191 200.867 152.71C200.606 152.23 200.251 151.865 199.802 151.615C199.364 151.354 198.879 151.223 198.346 151.223C197.814 151.223 197.329 151.348 196.89 151.599C196.452 151.849 196.102 152.215 195.841 152.695C195.58 153.175 195.45 153.739 195.45 154.386C195.45 155.043 195.58 155.617 195.841 156.108C196.102 156.588 196.452 156.959 196.89 157.22C197.329 157.47 197.814 157.595 198.346 157.595C198.879 157.595 199.364 157.47 199.802 157.22C200.251 156.959 200.606 156.588 200.867 156.108C201.128 155.617 201.258 155.049 201.258 154.401ZM205.842 148.734C205.571 148.734 205.341 148.64 205.153 148.452C204.966 148.264 204.872 148.034 204.872 147.763C204.872 147.492 204.966 147.262 205.153 147.074C205.341 146.886 205.571 146.792 205.842 146.792C206.103 146.792 206.322 146.886 206.5 147.074C206.688 147.262 206.782 147.492 206.782 147.763C206.782 148.034 206.688 148.264 206.5 148.452C206.322 148.64 206.103 148.734 205.842 148.734ZM206.531 150.127V158.707H205.106V150.127H206.531ZM210.384 147.121V158.707H208.959V147.121H210.384ZM212.28 154.386C212.28 153.509 212.458 152.742 212.812 152.084C213.167 151.416 213.653 150.9 214.268 150.534C214.895 150.169 215.589 149.986 216.351 149.986C217.102 149.986 217.755 150.148 218.308 150.472C218.861 150.795 219.273 151.202 219.545 151.693V150.127H220.985V158.707H219.545V157.11C219.263 157.611 218.84 158.028 218.276 158.362C217.723 158.686 217.076 158.848 216.335 158.848C215.573 158.848 214.884 158.66 214.268 158.284C213.653 157.908 213.167 157.381 212.812 156.703C212.458 156.024 212.28 155.252 212.28 154.386ZM219.545 154.401C219.545 153.754 219.414 153.191 219.153 152.71C218.892 152.23 218.537 151.865 218.089 151.615C217.65 151.354 217.165 151.223 216.633 151.223C216.1 151.223 215.615 151.348 215.177 151.599C214.738 151.849 214.388 152.215 214.128 152.695C213.867 153.175 213.736 153.739 213.736 154.386C213.736 155.043 213.867 155.617 214.128 156.108C214.388 156.588 214.738 156.959 215.177 157.22C215.615 157.47 216.1 157.595 216.633 157.595C217.165 157.595 217.65 157.47 218.089 157.22C218.537 156.959 218.892 156.588 219.153 156.108C219.414 155.617 219.545 155.049 219.545 154.401ZM224.817 151.724C225.11 151.213 225.538 150.795 226.101 150.472C226.665 150.148 227.307 149.986 228.027 149.986C228.799 149.986 229.494 150.169 230.109 150.534C230.725 150.9 231.211 151.416 231.565 152.084C231.92 152.742 232.098 153.509 232.098 154.386C232.098 155.252 231.92 156.024 231.565 156.703C231.211 157.381 230.72 157.908 230.094 158.284C229.478 158.66 228.789 158.848 228.027 158.848C227.286 158.848 226.634 158.686 226.07 158.362C225.517 158.039 225.099 157.627 224.817 157.126V158.707H223.393V147.121H224.817V151.724ZM230.642 154.386C230.642 153.739 230.511 153.175 230.25 152.695C229.989 152.215 229.634 151.849 229.186 151.599C228.747 151.348 228.262 151.223 227.73 151.223C227.208 151.223 226.722 151.354 226.274 151.615C225.835 151.865 225.48 152.236 225.209 152.726C224.948 153.206 224.817 153.765 224.817 154.401C224.817 155.049 224.948 155.617 225.209 156.108C225.48 156.588 225.835 156.959 226.274 157.22C226.722 157.47 227.208 157.595 227.73 157.595C228.262 157.595 228.747 157.47 229.186 157.22C229.634 156.959 229.989 156.588 230.25 156.108C230.511 155.617 230.642 155.043 230.642 154.386ZM235.398 147.121V158.707H233.973V147.121H235.398ZM245.654 154.088C245.654 154.36 245.639 154.647 245.607 154.949H238.75C238.802 155.795 239.089 156.458 239.611 156.938C240.143 157.407 240.785 157.642 241.537 157.642C242.152 157.642 242.664 157.501 243.071 157.22C243.488 156.927 243.781 156.541 243.948 156.061H245.482C245.252 156.886 244.793 157.559 244.104 158.081C243.415 158.592 242.559 158.848 241.537 158.848C240.722 158.848 239.992 158.665 239.345 158.3C238.708 157.935 238.207 157.418 237.842 156.75C237.476 156.071 237.294 155.289 237.294 154.401C237.294 153.514 237.471 152.737 237.826 152.069C238.181 151.401 238.677 150.889 239.313 150.534C239.961 150.169 240.702 149.986 241.537 149.986C242.351 149.986 243.071 150.164 243.697 150.519C244.323 150.873 244.804 151.364 245.138 151.99C245.482 152.606 245.654 153.305 245.654 154.088ZM244.183 153.791C244.183 153.248 244.063 152.784 243.822 152.397C243.582 152.001 243.254 151.703 242.836 151.505C242.429 151.296 241.975 151.192 241.474 151.192C240.754 151.192 240.138 151.421 239.627 151.881C239.126 152.34 238.838 152.977 238.765 153.791H244.183ZM252.445 148.734C252.173 148.734 251.944 148.64 251.756 148.452C251.568 148.264 251.474 148.034 251.474 147.763C251.474 147.492 251.568 147.262 251.756 147.074C251.944 146.886 252.173 146.792 252.445 146.792C252.706 146.792 252.925 146.886 253.102 147.074C253.29 147.262 253.384 147.492 253.384 147.763C253.384 148.034 253.29 148.264 253.102 148.452C252.925 148.64 252.706 148.734 252.445 148.734ZM253.134 150.127V158.707H251.709V150.127H253.134ZM259.742 149.971C260.786 149.971 261.631 150.289 262.278 150.926C262.926 151.552 263.249 152.46 263.249 153.65V158.707H261.84V153.853C261.84 152.998 261.626 152.345 261.198 151.896C260.77 151.437 260.186 151.207 259.445 151.207C258.693 151.207 258.093 151.442 257.644 151.912C257.206 152.382 256.987 153.065 256.987 153.963V158.707H255.562V150.127H256.987V151.348C257.268 150.91 257.649 150.571 258.13 150.331C258.62 150.091 259.158 149.971 259.742 149.971ZM271.488 151.301V156.358C271.488 156.776 271.577 157.073 271.755 157.251C271.932 157.418 272.24 157.501 272.678 157.501H273.727V158.707H272.443C271.65 158.707 271.055 158.524 270.659 158.159C270.262 157.794 270.064 157.193 270.064 156.358V151.301H268.952V150.127H270.064V147.967H271.488V150.127H273.727V151.301H271.488ZM279.712 149.971C280.359 149.971 280.944 150.112 281.466 150.393C281.987 150.665 282.395 151.077 282.687 151.63C282.989 152.183 283.141 152.857 283.141 153.65V158.707H281.732V153.853C281.732 152.998 281.518 152.345 281.09 151.896C280.662 151.437 280.077 151.207 279.336 151.207C278.585 151.207 277.985 151.442 277.536 151.912C277.097 152.382 276.878 153.065 276.878 153.963V158.707H275.454V147.121H276.878V151.348C277.16 150.91 277.546 150.571 278.037 150.331C278.538 150.091 279.096 149.971 279.712 149.971ZM286.204 148.734C285.933 148.734 285.703 148.64 285.515 148.452C285.327 148.264 285.233 148.034 285.233 147.763C285.233 147.492 285.327 147.262 285.515 147.074C285.703 146.886 285.933 146.792 286.204 146.792C286.465 146.792 286.684 146.886 286.862 147.074C287.049 147.262 287.143 147.492 287.143 147.763C287.143 148.034 287.049 148.264 286.862 148.452C286.684 148.64 286.465 148.734 286.204 148.734ZM286.893 150.127V158.707H285.468V150.127H286.893ZM292.358 158.848C291.701 158.848 291.111 158.738 290.589 158.519C290.067 158.289 289.655 157.976 289.352 157.58C289.05 157.173 288.883 156.708 288.851 156.186H290.323C290.365 156.614 290.563 156.964 290.918 157.235C291.283 157.507 291.758 157.642 292.343 157.642C292.886 157.642 293.313 157.522 293.627 157.282C293.94 157.042 294.096 156.739 294.096 156.374C294.096 155.998 293.929 155.722 293.595 155.544C293.261 155.356 292.745 155.174 292.045 154.996C291.409 154.829 290.887 154.662 290.48 154.495C290.083 154.318 289.739 154.062 289.446 153.728C289.165 153.384 289.024 152.935 289.024 152.382C289.024 151.943 289.154 151.541 289.415 151.176C289.676 150.811 290.047 150.524 290.527 150.315C291.007 150.096 291.555 149.986 292.171 149.986C293.12 149.986 293.888 150.226 294.472 150.706C295.057 151.187 295.37 151.844 295.411 152.679H293.987C293.955 152.23 293.773 151.87 293.439 151.599C293.115 151.327 292.677 151.192 292.124 151.192C291.612 151.192 291.205 151.301 290.902 151.521C290.6 151.74 290.448 152.027 290.448 152.382C290.448 152.664 290.537 152.898 290.715 153.086C290.902 153.264 291.132 153.41 291.403 153.525C291.685 153.629 292.071 153.749 292.562 153.885C293.178 154.052 293.679 154.219 294.065 154.386C294.451 154.542 294.78 154.782 295.051 155.106C295.333 155.429 295.479 155.852 295.49 156.374C295.49 156.844 295.359 157.267 295.098 157.642C294.837 158.018 294.467 158.315 293.987 158.535C293.517 158.743 292.974 158.848 292.358 158.848ZM301.143 154.386C301.143 153.509 301.32 152.742 301.675 152.084C302.03 151.416 302.515 150.9 303.131 150.534C303.757 150.169 304.451 149.986 305.213 149.986C305.965 149.986 306.617 150.148 307.17 150.472C307.724 150.795 308.136 151.202 308.407 151.693V150.127H309.848V158.707H308.407V157.11C308.125 157.611 307.703 158.028 307.139 158.362C306.586 158.686 305.939 158.848 305.198 158.848C304.436 158.848 303.747 158.66 303.131 158.284C302.515 157.908 302.03 157.381 301.675 156.703C301.32 156.024 301.143 155.252 301.143 154.386ZM308.407 154.401C308.407 153.754 308.277 153.191 308.016 152.71C307.755 152.23 307.4 151.865 306.951 151.615C306.513 151.354 306.028 151.223 305.495 151.223C304.963 151.223 304.478 151.348 304.039 151.599C303.601 151.849 303.251 152.215 302.99 152.695C302.729 153.175 302.599 153.739 302.599 154.386C302.599 155.043 302.729 155.617 302.99 156.108C303.251 156.588 303.601 156.959 304.039 157.22C304.478 157.47 304.963 157.595 305.495 157.595C306.028 157.595 306.513 157.47 306.951 157.22C307.4 156.959 307.755 156.588 308.016 156.108C308.277 155.617 308.407 155.049 308.407 154.401ZM313.68 151.521C313.931 151.03 314.285 150.649 314.745 150.378C315.214 150.106 315.783 149.971 316.451 149.971V151.442H316.076C314.479 151.442 313.68 152.309 313.68 154.041V158.707H312.255V150.127H313.68V151.521ZM325.924 154.088C325.924 154.36 325.909 154.647 325.877 154.949H319.02C319.072 155.795 319.359 156.458 319.881 156.938C320.413 157.407 321.055 157.642 321.807 157.642C322.422 157.642 322.934 157.501 323.341 157.22C323.758 156.927 324.051 156.541 324.218 156.061H325.752C325.522 156.886 325.063 157.559 324.374 158.081C323.685 158.592 322.829 158.848 321.807 158.848C320.992 158.848 320.262 158.665 319.615 158.3C318.978 157.935 318.477 157.418 318.112 156.75C317.746 156.071 317.564 155.289 317.564 154.401C317.564 153.514 317.741 152.737 318.096 152.069C318.451 151.401 318.947 150.889 319.583 150.534C320.23 150.169 320.972 149.986 321.807 149.986C322.621 149.986 323.341 150.164 323.967 150.519C324.593 150.873 325.074 151.364 325.408 151.99C325.752 152.606 325.924 153.305 325.924 154.088ZM324.452 153.791C324.452 153.248 324.332 152.784 324.092 152.397C323.852 152.001 323.524 151.703 323.106 151.505C322.699 151.296 322.245 151.192 321.744 151.192C321.024 151.192 320.408 151.421 319.896 151.881C319.395 152.34 319.108 152.977 319.035 153.791H324.452ZM327.272 154.386C327.272 153.509 327.45 152.742 327.805 152.084C328.16 151.416 328.645 150.9 329.261 150.534C329.887 150.169 330.581 149.986 331.343 149.986C332.095 149.986 332.747 150.148 333.3 150.472C333.853 150.795 334.266 151.202 334.537 151.693V150.127H335.977V158.707H334.537V157.11C334.255 157.611 333.833 158.028 333.269 158.362C332.716 158.686 332.069 158.848 331.327 158.848C330.566 158.848 329.877 158.66 329.261 158.284C328.645 157.908 328.16 157.381 327.805 156.703C327.45 156.024 327.272 155.252 327.272 154.386ZM334.537 154.401C334.537 153.754 334.407 153.191 334.146 152.71C333.885 152.23 333.53 151.865 333.081 151.615C332.643 151.354 332.157 151.223 331.625 151.223C331.093 151.223 330.607 151.348 330.169 151.599C329.731 151.849 329.381 152.215 329.12 152.695C328.859 153.175 328.729 153.739 328.729 154.386C328.729 155.043 328.859 155.617 329.12 156.108C329.381 156.588 329.731 156.959 330.169 157.22C330.607 157.47 331.093 157.595 331.625 157.595C332.157 157.595 332.643 157.47 333.081 157.22C333.53 156.959 333.885 156.588 334.146 156.108C334.407 155.617 334.537 155.049 334.537 154.401Z" fill="#87898A"/>
</g>
<g clip-path="url(#clip1_568_951)">
<path d="M978.529 0H-4.80041e-05V132.236C17.8342 134.177 35.8928 135.608 53.8392 136.732C91.078 139.083 128.541 141.024 165.892 142.455C200.215 143.783 235.322 144.499 269.533 141.126C289.498 138.163 309.239 133.973 329.092 130.907C345.356 128.353 361.845 126.002 378.445 125.491C386.745 125.185 394.933 125.287 403.121 124.878C404.019 124.674 405.028 124.469 405.926 124.265C413.328 120.075 419.834 114.761 427.573 110.98C436.21 106.79 445.52 103.111 454.942 100.556C456.624 100.148 458.307 99.6367 459.989 99.228C465.71 95.5491 471.991 92.7899 478.945 91.0526C484.329 90.4395 489.713 89.7242 495.097 89.111C511.361 88.4979 526.615 95.6513 538.168 105.359C549.385 114.761 556.003 131.01 556.003 144.601C556.003 157.784 549.497 174.952 538.168 183.843C525.045 194.164 514.165 199.887 497.564 204.894C494.424 205.814 491.171 206.631 487.918 207.551C482.422 210.515 477.375 213.887 472.103 217.361C460.886 224.719 447.315 229.931 433.743 232.486C410.637 236.778 387.53 235.654 364.424 237.697C333.691 242.092 303.519 248.734 272.561 252.106C217.712 257.931 161.63 253.537 106.781 250.88C78.7399 249.552 50.8108 248.121 22.7695 245.771C15.1422 245.157 7.51502 244.34 -0.112213 243.522V429.204H978.416V0H978.529Z" fill="white"/>
<path d="M978.529 0H0V429H978.529V0Z" fill="#F2F2F2"/>
<path d="M978.529 257.216H0V429H978.529V257.216Z" fill="#C4C4C4"/>
<path fill-rule="evenodd" clip-rule="evenodd" d="M978.529 222.675L929.176 219.201L918.296 231.464L799.513 224.821C796.036 211.23 792.559 180.981 792.559 180.981L700.808 175.769L684.32 197.127L622.853 191.303L611.861 159.01L594.924 157.579L592.232 177.098L578.997 177.915L575.744 198.047L566.21 198.66L563.406 208.471L549.273 207.96L543.552 201.726C529.307 199.478 525.83 198.558 525.83 198.558C525.269 198.354 519.1 207.653 518.427 208.777C513.043 209.084 508.22 207.347 502.949 207.244C495.321 207.142 487.021 210.004 479.618 211.434C462.793 214.807 445.969 217.77 429.032 220.529C395.27 226.048 361.172 230.442 327.074 233.814C258.765 240.457 189.896 242.603 121.251 240.252C91.4147 239.23 61.5788 237.391 31.855 234.632C23.4426 233.814 14.6937 232.997 6.61784 235.449C4.26237 236.165 2.13123 237.187 0.112259 238.413V265.391C1.68257 266.413 3.36505 267.231 5.15969 267.844C12.4504 270.501 20.5263 270.399 28.49 270.297C143.459 268.662 258.316 267.129 373.286 265.494C407.945 264.983 443.501 264.37 475.58 252.515C489.937 247.201 503.285 239.844 517.642 234.734C541.758 226.15 567.107 230.646 592.232 232.179C613.992 233.508 635.752 234.938 657.512 236.267C705.182 239.23 752.965 242.194 800.635 245.26C845.725 248.121 890.816 250.88 935.794 253.742L978.529 256.399V222.675Z" fill="#EEB3B2"/>
<path fill-rule="evenodd" clip-rule="evenodd" d="M978.529 226.865L974.715 226.354L978.529 238.719V226.865Z" fill="#C4C4C4"/>
<path fill-rule="evenodd" clip-rule="evenodd" d="M978.529 244.647L968.434 243.931L965.742 221.756L929.176 219.201L918.296 231.464L799.513 224.821L796.26 218.179L796.372 234.223L774.052 232.69L766.088 206.12L733.448 200.602L728.737 177.405L700.808 175.769L684.319 197.127L622.853 191.303L624.76 222.88L616.123 222.267L609.505 189.668L606.813 189.259L604.121 217.566L598.625 221.142L597.616 157.682L594.812 157.477L592.793 177.507L578.884 177.915L575.632 198.047L566.097 198.66L563.293 208.471L549.161 207.96L558.695 221.245L546.244 220.632L540.524 205.916L532.56 203.463L531.438 216.85L528.746 216.646L525.718 198.66L518.315 208.879C518.315 208.879 516.857 213.785 516.52 214.398C516.184 214.909 513.38 215.011 512.819 215.011C488.143 217.975 464.027 222.778 441.258 232.179L677.477 239.844L634.406 231.566L668.953 216.953L681.628 217.259L735.467 230.442L741.636 243.829L813.309 247.099L854.698 236.573L930.634 243.318L949.366 254.763L978.753 256.603V244.647H978.529Z" fill="#C4C4C4"/>
<path d="M592 176L579.5 178V230L638.5 246.5L691.5 251H733.5L748 177L699.5 175L683 195.5L624.5 190L614.5 158.5L594.5 157L592 176Z" fill="#C4C4C4"/>
<path fill-rule="evenodd" clip-rule="evenodd" d="M978.529 187.419L977.519 197.23L972.92 198.456L966.303 236.88L944.43 242.909V232.792L937.364 231.464L922.109 215.113L921.997 210.004L888.123 209.084L896.536 62.7456L867.149 52.4243L836.752 49.3585L831.592 123.141L827.218 125.696L822.956 166.674L805.794 165.55L805.682 133.258L781.23 127.637L755.656 137.141L738.832 220.734L731.541 261.713L903.378 273.771L978.529 270.297V187.419Z" fill="#DBDBDB"/>
<path fill-rule="evenodd" clip-rule="evenodd" d="M867.148 52.4242L867.934 203.565L888.011 205.2L888.123 209.084H876.907L871.299 216.85L868.158 253.844L849.09 251.391L858.512 157.681L859.409 140.513L858.96 119.666L861.428 51.9132L867.148 52.4242Z" fill="#C4C4C4"/>
<path fill-rule="evenodd" clip-rule="evenodd" d="M781.23 127.637L793.007 130.294L790.988 151.754L785.604 256.807L741.748 258.647L747.356 240.048C747.356 240.048 766.088 133.36 766.761 133.053C767.321 132.849 781.23 127.637 781.23 127.637Z" fill="#C4C4C4"/>
<path fill-rule="evenodd" clip-rule="evenodd" d="M805.794 165.55L801.981 253.844L817.684 254.763L822.955 166.674L805.794 165.55Z" fill="#C4C4C4"/>
<path fill-rule="evenodd" clip-rule="evenodd" d="M915.828 260.691L916.613 226.354L922.109 215.113L937.364 231.464L936.579 258.953L915.828 260.691Z" fill="#C4C4C4"/>
<path fill-rule="evenodd" clip-rule="evenodd" d="M978.529 187.419L977.519 197.23L972.92 198.456L966.303 236.88L959.012 263.245L969.331 265.494L978.529 262.939V187.419Z" fill="#C4C4C4"/>
<path fill-rule="evenodd" clip-rule="evenodd" d="M978.529 258.34C955.983 260.18 926.035 262.939 926.035 262.939C926.035 262.939 877.356 264.267 876.907 261.712L876.01 258.238C876.01 258.238 788.521 253.537 731.205 249.756L732.999 241.785L649.1 229.931L483.544 223.391C473.449 229.113 445.52 230.237 433.855 232.383C410.749 236.676 387.643 235.551 364.537 237.595C333.803 241.989 303.631 248.632 272.673 252.004C217.825 257.829 161.742 253.435 106.893 250.778C78.8521 249.449 50.923 248.019 22.8817 245.668C15.2545 245.055 7.62723 244.238 0 243.42V327.013L978.529 353.889V258.34Z" fill="#C4C4C4"/>
<path fill-rule="evenodd" clip-rule="evenodd" d="M380.576 257.625C380.688 257.42 380.801 257.216 380.913 257.216C380.801 257.42 380.688 257.523 380.576 257.625Z" fill="#DBDBDB"/>
<path opacity="0.68" fill-rule="evenodd" clip-rule="evenodd" d="M978.529 425.525L941.963 429H978.529V425.525Z" fill="url(#paint2_linear_568_951)"/>
<path fill-rule="evenodd" clip-rule="evenodd" d="M978.529 429V346.634L897.77 355.013C684.207 346.634 449.67 335.393 220.965 320.37C220.292 320.37 228.368 318.633 228.368 318.633C381.025 292.37 709.781 274.384 709.781 274.384C709.781 274.384 672.318 265.494 622.741 259.873C617.581 259.26 602.215 257.523 602.215 257.523C602.215 257.523 634.182 261.406 641.472 262.939C659.195 266.618 684.319 273.056 645.062 274.487C601.093 276.019 206.608 303.202 47.3337 314.239C37.7997 314.852 37.2388 327.422 46.6607 328.75C91.5268 335.495 150.189 344.181 192.251 349.802C294.209 363.597 445.52 375.145 613.88 384.24L180.586 428.898H978.529V429Z" fill="#B0B0B0"/>
<path fill-rule="evenodd" clip-rule="evenodd" d="M761.601 370.751L751.618 371.977L637.434 365.437L656.39 363.7L761.601 370.751Z" fill="#DBDBDB"/>
<path fill-rule="evenodd" clip-rule="evenodd" d="M419.834 351.743L429.929 351.028L563.293 357.773L549.273 359.612L419.834 351.743Z" fill="#DBDBDB"/>
<path fill-rule="evenodd" clip-rule="evenodd" d="M267.738 339.991L278.618 339.787L370.706 346.225L356.124 347.86L267.738 339.991Z" fill="#DBDBDB"/>
<path fill-rule="evenodd" clip-rule="evenodd" d="M174.753 331.407L185.745 330.59L236.893 335.699L230.724 336.312L174.753 331.407Z" fill="#DBDBDB"/>
<path fill-rule="evenodd" clip-rule="evenodd" d="M0 317.509L660.316 273.26C660.316 273.26 450.904 282.968 294.546 293.085C173.407 301.056 49.6892 310.458 0 314.239V317.509Z" fill="#C4C4C4"/>
<path fill-rule="evenodd" clip-rule="evenodd" d="M803.551 429L892.722 413.263H852.119L754.871 429H803.551Z" fill="#DBDBDB"/>
<path fill-rule="evenodd" clip-rule="evenodd" d="M978.529 341.728L895.751 351.334V351.437C894.517 351.334 893.283 351.334 892.049 351.232C888.572 351.028 885.095 350.926 881.506 350.721C875.898 350.415 870.401 350.21 864.793 349.904C857.39 349.495 849.987 349.188 842.584 348.78C833.611 348.371 824.526 347.86 815.553 347.451C805.121 346.94 794.802 346.429 784.371 345.918L749.712 344.181C737.261 343.568 724.699 342.955 712.249 342.342C699.013 341.728 685.778 341.013 672.542 340.4C658.858 339.685 645.062 339.072 631.378 338.356C617.357 337.641 603.336 336.925 589.428 336.21C575.407 335.495 561.274 334.779 547.254 334.064C533.345 333.349 519.549 332.633 505.64 332.02C492.181 331.305 478.721 330.692 465.149 329.976C452.25 329.363 439.463 328.648 426.564 328.035C407.832 327.115 389.213 326.195 370.481 325.276C351.75 324.356 332.906 323.436 314.175 322.414C297.35 321.597 280.637 320.779 263.812 319.859C286.806 314.75 309.8 309.64 332.794 304.531C293.2 309.845 253.605 315.159 214.011 320.473L384.951 330.487C403.346 331.612 421.853 332.633 440.248 333.962C458.868 335.393 477.375 337.232 495.882 339.582C505.304 340.809 514.614 341.626 524.148 342.342C529.195 342.75 534.243 343.057 539.29 343.466C557.909 344.794 576.529 345.918 595.148 347.247C596.158 347.349 597.167 347.349 598.177 347.451C616.011 348.78 633.733 350.21 651.455 351.641C686.002 354.4 720.997 358.181 755.656 358.386C755.993 358.386 756.329 358.386 756.554 358.386C788.184 358.59 819.703 358.794 851.333 358.999L892.386 359.305L978.529 357.67V341.728Z" fill="#C4C4C4"/>
<path fill-rule="evenodd" clip-rule="evenodd" d="M456.176 300.75C456.176 300.75 537.047 291.961 623.077 296.56C623.189 296.56 549.16 308.721 456.176 300.75Z" fill="#C4C4C4"/>
<path fill-rule="evenodd" clip-rule="evenodd" d="M914.931 41.2854L918.52 41.8985L909.323 344.283L904.836 344.794L914.931 41.2854Z" fill="#8E97A5"/>
<path fill-rule="evenodd" clip-rule="evenodd" d="M912.8 71.5341L912.688 72.6582L905.061 66.5267L906.182 66.6289L912.8 71.5341Z" fill="#351924"/>
<path fill-rule="evenodd" clip-rule="evenodd" d="M912.8 71.534L906.182 66.6288L906.631 66.4244L913.136 71.534H912.8Z" fill="#8E97A5"/>
<path fill-rule="evenodd" clip-rule="evenodd" d="M914.931 41.2854L911.903 41.3876L900.798 344.283L904.836 344.794L914.931 41.2854Z" fill="#5B6A87"/>
<path fill-rule="evenodd" clip-rule="evenodd" d="M912.351 272.34L907.304 272.238L904.836 344.794L909.996 344.283L912.351 272.34Z" fill="#8E97A5"/>
<path fill-rule="evenodd" clip-rule="evenodd" d="M902.929 272.238H907.304L904.836 344.794L900.125 344.283L902.929 272.238Z" fill="#5B6A87"/>
<path fill-rule="evenodd" clip-rule="evenodd" d="M932.99 57.4316L894.629 63.3587V67.3442L932.877 63.7675L932.99 57.4316Z" fill="#5B6A87"/>
<path fill-rule="evenodd" clip-rule="evenodd" d="M894.629 67.3443L900.013 67.4465L911.342 66.3224V66.0158L914.482 65.607L916.95 66.118L937.813 64.0742L932.877 63.7676L894.629 67.3443Z" fill="#351924"/>
<path fill-rule="evenodd" clip-rule="evenodd" d="M932.99 57.4316L937.813 58.147V64.0741L932.877 63.7675L932.99 57.4316Z" fill="#8E97A5"/>
<path fill-rule="evenodd" clip-rule="evenodd" d="M896.424 63.1544L897.209 59.5777L898.218 59.3733L899.116 62.6434L896.424 63.1544Z" fill="#5B6A87"/>
<path fill-rule="evenodd" clip-rule="evenodd" d="M900.686 62.439L899.116 62.6434L898.218 59.3733L899.34 59.5777L900.686 62.439Z" fill="#8E97A5"/>
<path fill-rule="evenodd" clip-rule="evenodd" d="M931.98 57.5338L929.064 58.0447L930.298 54.6724L931.644 54.3658L931.98 57.5338Z" fill="#5B6A87"/>
<path fill-rule="evenodd" clip-rule="evenodd" d="M932.99 54.7746L931.644 54.3658L931.98 57.5338L932.99 57.4316L933.55 57.5338L932.99 54.7746Z" fill="#8E97A5"/>
<path fill-rule="evenodd" clip-rule="evenodd" d="M904.163 61.928L904.948 58.1469L906.182 57.8403L906.743 61.5192L904.163 61.928Z" fill="#5B6A87"/>
<path fill-rule="evenodd" clip-rule="evenodd" d="M906.967 57.8403H906.182L906.743 61.5192L907.977 61.3148L906.967 57.8403Z" fill="#8E97A5"/>
<path fill-rule="evenodd" clip-rule="evenodd" d="M919.978 59.4755L922.334 59.0667L921.885 55.3878L920.427 55.7966L919.978 59.4755Z" fill="#5B6A87"/>
<path fill-rule="evenodd" clip-rule="evenodd" d="M923.007 55.6944L921.885 55.3878L922.334 59.0667L923.343 58.9645L923.007 55.6944Z" fill="#8E97A5"/>
<path fill-rule="evenodd" clip-rule="evenodd" d="M925.474 64.6873L924.353 64.7894L916.165 70.9209V71.8407L925.474 64.6873Z" fill="#351924"/>
<path fill-rule="evenodd" clip-rule="evenodd" d="M925.474 64.6873H926.372L916.838 71.7385L916.165 71.8407L925.474 64.6873Z" fill="#8E97A5"/>
<path d="M978.529 82.1619C975.5 80.5269 972.584 78.994 969.555 77.3589C963.162 73.7822 956.881 70.1033 950.711 66.3223C944.542 62.439 938.373 58.4535 932.429 54.3659C929.4 52.322 926.484 50.176 923.568 48.03C920.651 45.884 917.735 43.6357 915.043 41.2853H914.931C911.117 42.1029 907.304 42.716 903.602 43.3292C899.789 43.9423 895.975 44.5555 892.161 45.0664C884.534 46.0883 876.795 47.0081 869.055 47.7234C861.316 48.4387 853.577 49.0519 845.837 49.5628C843.93 49.665 841.911 49.7672 840.005 49.8694L837.088 50.0738L834.172 50.176L828.339 50.3804L822.507 50.5848C821.497 50.5848 820.6 50.687 819.591 50.687L816.674 50.7891L810.842 50.8913H805.009H802.093C801.083 50.8913 800.186 50.8913 799.176 50.8913H793.344H791.886H790.428L787.511 50.7891L781.679 50.687L775.846 50.4826C760.143 49.9716 744.44 49.0519 728.737 47.6212C697.331 44.7598 666.036 40.059 635.079 33.5188L629.246 32.2925L626.33 31.6793C625.321 31.475 624.423 31.2706 623.414 31.0662L611.861 28.4092L600.308 25.5478C598.401 25.0369 596.494 24.5259 594.587 24.015L588.867 22.4821L585.951 21.6646C584.941 21.358 584.044 21.1536 583.034 20.847L577.314 19.212L571.593 17.5769L570.135 17.1681L568.677 16.7594L565.873 15.8396L560.153 14.1024L557.348 13.1827L555.89 12.7739C555.442 12.6717 554.993 12.4673 554.432 12.2629L543.104 8.48186C541.197 7.86871 539.29 7.15337 537.495 6.54022L531.887 4.59858C529.98 3.98543 528.186 3.27009 526.279 2.65694L520.67 0.613112L519.549 0.204346H518.315L520.558 1.02188L526.167 3.06571C528.073 3.78105 529.868 4.3942 531.775 5.00735L537.383 6.94899C539.29 7.56214 541.085 8.27748 542.991 8.89062L554.32 12.6717C554.769 12.8761 555.217 12.9783 555.778 13.1827L557.236 13.5914L559.704 14.3068L565.424 16.044L568.228 16.9638L569.687 17.3725L571.145 17.7813L576.865 19.4164L582.586 21.0514C583.483 21.358 584.492 21.5624 585.502 21.8689L588.418 22.6865L594.139 24.2194C596.045 24.7303 597.952 25.2413 599.859 25.7522L611.3 28.6136L622.853 31.2706C623.862 31.475 624.76 31.6793 625.769 31.8837L628.685 32.4969L634.518 33.7232C665.476 40.2634 696.882 44.9642 728.288 47.7234C743.991 49.1541 759.694 50.0738 775.397 50.5848L781.23 50.7891L787.063 50.8913H789.979H791.437H792.895H798.728C799.737 50.8913 800.635 50.8913 801.644 50.8913H804.56H810.393L816.226 50.7891L819.142 50.687C820.151 50.687 821.049 50.5848 822.058 50.5848L827.891 50.3804L833.723 50.176L836.64 50.0738L839.556 49.8694C841.463 49.7672 843.482 49.665 845.388 49.5628C853.128 49.0519 860.867 48.4387 868.607 47.7234C876.346 47.0081 884.085 46.0883 891.713 45.0664C895.526 44.5555 899.34 43.9423 903.154 43.3292C906.967 42.716 910.669 42.0007 914.482 41.2853C917.286 43.6357 920.09 45.7818 923.007 47.9278C925.923 50.0738 928.839 52.2198 931.868 54.2637C937.813 58.4535 943.982 62.439 950.151 66.2201C956.32 70.0012 962.601 73.7822 968.994 77.2568C972.023 78.8918 975.051 80.5269 978.08 82.1619H978.529Z" fill="#5B6A87"/>
<path d="M978.529 79.7094C975.724 78.2787 972.808 76.7458 970.004 75.3151C963.835 72.045 957.554 68.6727 951.385 65.3003C945.215 61.8258 939.159 58.3513 933.102 54.7746C929.064 55.1834 925.138 55.5921 921.1 55.8987C917.062 56.2053 913.024 56.5119 908.986 56.7163C900.91 57.2272 892.834 57.5338 884.758 57.8404C868.607 58.3513 852.343 58.4535 836.079 58.1469C803.551 57.636 770.911 55.6943 738.271 52.322C721.895 50.5848 705.631 48.5409 689.367 46.0883C673.103 43.6357 656.839 40.8766 640.575 37.6064C608.159 31.1684 575.968 23.1974 544.225 13.4892C530.765 9.40158 517.418 4.90516 504.182 0.204346H502.836C516.408 5.10954 530.205 9.70816 544.001 13.898C575.744 23.6062 607.935 31.5771 640.351 38.0152C656.502 41.1831 672.766 44.0445 689.143 46.4971C705.406 48.9497 721.783 50.9935 738.047 52.6286C770.687 56.0009 803.327 57.9426 835.854 58.4535C852.118 58.6579 868.382 58.5557 884.534 58.0447C892.61 57.7382 900.686 57.4316 908.762 56.9206C912.8 56.7163 916.838 56.4097 920.876 56.1031C924.914 55.7965 928.839 55.49 932.877 54.979C938.934 58.5557 944.991 62.0302 951.16 65.5047C957.329 68.877 963.498 72.2494 969.78 75.5195C972.696 77.0524 975.612 78.4831 978.416 80.0159V79.7094H978.529Z" fill="#5B6A87"/>
<path d="M978.529 94.5272C965.181 89.111 951.833 83.4905 938.598 77.6656C931.868 74.702 925.138 71.7384 918.408 68.6727C911.678 65.6069 904.948 62.5412 898.331 59.2711C882.964 62.5412 867.373 64.9938 851.558 66.4245C835.742 67.9574 819.927 68.4683 804 68.3661C796.036 68.2639 788.072 67.9574 780.108 67.5486L774.164 67.1398L768.219 66.7311C766.2 66.6289 764.293 66.4245 762.274 66.2201L759.246 65.9135C758.236 65.8113 757.227 65.7091 756.217 65.6069L753.189 65.3004C752.179 65.1982 751.17 65.096 750.16 64.9938L744.216 64.2785C742.197 64.0741 740.29 63.7675 738.271 63.5631C736.252 63.3587 734.345 63.0522 732.326 62.7456C730.307 62.439 728.4 62.2346 726.381 61.8259C724.362 61.5193 722.456 61.2127 720.437 60.9061L714.492 59.8842C713.482 59.6798 712.473 59.5777 711.576 59.3733L708.659 58.8623C677.029 53.1396 645.847 45.2708 615.114 35.6648C584.38 26.0588 554.096 14.92 524.26 2.55479C522.241 1.73726 520.222 0.817532 518.203 0H517.081C519.437 1.02192 521.792 1.94164 524.035 2.96355C553.871 15.3287 584.156 26.5698 614.889 36.0736C645.622 45.5774 676.804 53.5484 708.435 59.1689L711.351 59.6798C712.361 59.8842 713.37 59.9864 714.268 60.1908L720.212 61.2127C722.231 61.5193 724.138 61.8259 726.157 62.1324C728.176 62.439 730.083 62.7456 732.102 63.0522C734.121 63.3587 736.028 63.6653 738.047 63.8697C740.066 64.0741 741.972 64.3807 743.991 64.585L749.936 65.3004C750.946 65.4026 751.955 65.5048 752.964 65.6069L755.993 65.9135C757.002 66.0157 758.012 66.1179 759.021 66.2201L762.05 66.5267C764.069 66.7311 765.976 66.9354 767.995 67.0376L773.939 67.4464L779.884 67.8552C787.848 68.2639 795.812 68.5705 803.775 68.6727C819.703 68.7749 835.63 68.2639 851.333 66.7311C867.036 65.3004 882.74 62.8478 898.106 59.4755C904.724 62.6434 911.454 65.8113 918.184 68.8771C924.914 71.9428 931.644 74.9064 938.486 77.8699C951.721 83.6949 965.069 89.3154 978.529 94.7315V94.5272Z" fill="#5B6A87"/>
<path d="M978.529 93.1987C967.312 88.2935 956.208 83.1839 945.103 77.8699C938.598 74.702 931.98 71.4319 925.587 68.0595C922.334 66.4245 919.081 64.6872 915.94 62.95C912.688 61.2127 909.547 59.4755 906.406 57.636H906.294H906.182C904.275 58.3514 902.368 58.9645 900.462 59.5777C899.564 59.8842 898.555 60.1908 897.545 60.3952C896.536 60.7018 895.639 60.9061 894.629 61.2127C890.703 62.2346 886.89 63.1544 882.964 64.0741C875.112 65.7091 867.149 67.1398 859.185 68.1617L856.156 68.5705C855.147 68.6727 854.137 68.8771 853.128 68.9793C851.109 69.1837 849.09 69.388 847.071 69.5924L841.014 70.1034L834.957 70.5121C826.881 71.0231 818.805 71.3297 810.617 71.5341C806.579 71.5341 802.429 71.6363 798.391 71.5341H795.363H793.793H792.222L786.165 71.3297H784.595L783.025 71.2275L779.996 71.1253L776.968 71.0231L775.398 70.9209C774.837 70.9209 774.388 70.8187 773.827 70.8187L767.77 70.41C766.761 70.3078 765.751 70.3078 764.742 70.2056L761.713 70.0012C745.449 68.6727 729.186 66.7311 713.034 64.1763C680.618 59.0667 648.539 51.6067 617.02 42.5117C601.205 38.0152 585.502 32.9057 569.911 27.4895L564.078 25.4457L561.162 24.4238C560.153 24.1172 559.255 23.7084 558.246 23.4019L546.581 19.1098L545.123 18.5989C544.674 18.3945 544.113 18.1901 543.664 18.0879L540.748 16.9638L535.028 14.7156L529.307 12.4674C527.4 11.752 525.494 10.9345 523.587 10.117L512.146 5.51834L500.705 0.715341C500.144 0.510958 499.584 0.204383 499.023 0H497.901C498.798 0.408766 499.584 0.715341 500.481 1.12411L511.922 5.92711L523.363 10.5257C525.269 11.3433 527.176 12.0586 529.083 12.8761L534.916 15.1243L540.636 17.3726L543.552 18.4967C544.001 18.701 544.562 18.9054 545.01 19.0076L546.469 19.5186L558.134 23.8106C559.143 24.1172 560.041 24.526 561.05 24.8325L563.966 25.8545L569.799 27.8983C585.39 33.3144 601.093 38.3218 616.908 42.9204C648.539 52.0155 680.618 59.4755 713.034 64.585C729.186 67.1398 745.449 69.0815 761.826 70.3078L764.854 70.5121C765.864 70.6143 766.873 70.6143 767.882 70.7165L773.939 71.1253C774.5 71.1253 774.949 71.2275 775.51 71.2275L777.08 71.3297L780.108 71.4319L783.137 71.5341L784.707 71.6363H786.278L792.335 71.8406H793.905H795.475H798.504C802.542 71.9428 806.692 71.8406 810.73 71.8406C818.805 71.7384 826.993 71.4319 835.069 70.8187L841.126 70.41L847.183 69.899C849.202 69.6946 851.221 69.4902 853.24 69.2859C854.25 69.1837 855.259 69.0815 856.269 68.8771L859.297 68.4683C867.261 67.4464 875.225 66.0157 883.188 64.3807C887.114 63.5631 891.04 62.6434 894.966 61.5193C895.975 61.2127 896.872 61.0083 897.882 60.7018C898.891 60.3952 899.789 60.1908 900.798 59.8842C902.705 59.2711 904.612 58.6579 906.406 57.9426C909.547 59.782 912.688 61.5193 915.94 63.1544C919.193 64.8916 922.334 66.5267 925.587 68.2639C932.092 71.6363 938.598 74.9064 945.103 78.0743C956.208 83.3883 967.312 88.4979 978.641 93.4031V93.1987H978.529Z" fill="#5B6A87"/>
<path fill-rule="evenodd" clip-rule="evenodd" d="M900.35 344.181V343.875V342.342L733.784 335.801L728.064 337.845L904.836 344.794L900.35 344.181Z" fill="url(#paint3_linear_568_951)"/>
<path fill-rule="evenodd" clip-rule="evenodd" d="M978.529 355.831C971.799 354.707 944.991 349.495 969.668 343.568C948.468 346.225 927.83 349.904 911.566 355.013C910.22 355.422 942.187 355.831 978.416 356.035V355.831H978.529Z" fill="#C4C4C4"/>
<path fill-rule="evenodd" clip-rule="evenodd" d="M978.529 351.334L935.345 349.086L869.728 358.897C901.022 360.021 941.29 360.43 978.529 360.225V351.334Z" fill="#C4C4C4"/>
<path fill-rule="evenodd" clip-rule="evenodd" d="M775.846 286.341C779.099 305.246 786.053 326.093 792.559 335.699H797.943C797.943 335.699 814.543 314.341 818.357 291.45C818.357 291.45 806.243 304.735 796.933 324.458C796.933 324.458 805.121 306.37 804.112 287.26C804.112 287.26 793.905 305.246 793.905 328.954C793.905 328.954 792.11 320.984 786.165 307.29C778.875 290.53 775.846 286.341 775.846 286.341Z" fill="#AFAFAF"/>
<path fill-rule="evenodd" clip-rule="evenodd" d="M818.469 291.45L795.363 328.852C795.363 328.852 805.009 306.881 818.469 291.45Z" fill="#999999"/>
<path fill-rule="evenodd" clip-rule="evenodd" d="M806.916 304.837C806.916 304.837 805.346 320.473 792.559 335.699H789.755C789.642 335.597 789.418 335.392 788.857 335.086C787.96 334.473 786.614 333.451 784.932 332.02C780.557 328.137 774.612 320.779 774.164 308.414C774.164 308.107 774.164 307.699 774.164 307.392C774.164 307.392 786.726 321.597 790.876 333.349C790.764 332.838 788.072 319.655 789.867 301.669C789.867 301.669 796.821 311.991 794.466 327.83C794.802 326.604 797.27 312.808 806.916 304.837Z" fill="#888888"/>
<path fill-rule="evenodd" clip-rule="evenodd" d="M830.583 311.48C830.246 311.991 820.376 328.852 798.391 336.108L794.802 336.414H794.69C815.553 318.735 830.583 311.48 830.583 311.48Z" fill="#999999"/>
<path fill-rule="evenodd" clip-rule="evenodd" d="M790.764 335.699H789.867C789.867 335.699 789.53 335.393 788.97 335.086C788.072 334.473 786.726 333.349 785.044 332.02C780.669 328.137 774.725 320.779 774.276 308.414C781.23 327.83 790.764 335.699 790.764 335.699Z" fill="#B3B3B3"/>
<path fill-rule="evenodd" clip-rule="evenodd" d="M830.583 311.48C830.246 311.991 820.376 328.852 798.391 336.108L794.802 336.414C795.251 336.21 795.699 335.903 796.372 335.699C808.935 330.589 830.358 311.684 830.583 311.48Z" fill="#B3B3B3"/>
<path fill-rule="evenodd" clip-rule="evenodd" d="M792.559 333.553C793.905 320.575 790.091 301.567 790.091 301.567C790.091 301.567 797.045 311.888 794.69 327.728C794.914 326.502 797.382 312.706 807.028 304.837C801.756 319.859 792.559 333.553 792.559 333.553Z" fill="#AFAFAF"/>
<path fill-rule="evenodd" clip-rule="evenodd" d="M838.322 337.028C837.986 337.947 837.649 338.765 837.2 339.582C831.144 340.4 824.301 340.809 816.786 340.706C805.906 340.604 794.914 339.48 784.595 337.539C784.259 336.925 783.922 336.312 783.698 335.699C778.987 323.538 793.12 312.399 813.758 314.545C831.817 316.385 841.575 327.524 838.322 337.028Z" fill="#999999"/>
<path opacity="0.65" fill-rule="evenodd" clip-rule="evenodd" d="M798.391 316.589C776.968 325.275 834.733 345.203 836.415 337.13C840.229 318.735 814.88 309.845 798.391 316.589Z" fill="#A9A9A9"/>
<path fill-rule="evenodd" clip-rule="evenodd" d="M819.254 315.465L816.562 314.954C816.562 314.954 812.3 321.699 812.3 340.604L816.899 340.706C816.786 340.706 816.338 330.385 819.254 315.465Z" fill="#A9A9A9"/>
<path opacity="0.5" fill-rule="evenodd" clip-rule="evenodd" d="M816.562 314.954C816.562 314.954 812.412 326.4 812.3 340.604C812.3 340.604 810.169 334.166 810.842 328.341C811.739 321.699 816.562 314.954 816.562 314.954Z" fill="#F2F2F2"/>
<path opacity="0.5" fill-rule="evenodd" clip-rule="evenodd" d="M808.935 314.341C808.935 314.341 797.382 316.181 794.129 327.217C791.437 336.21 792.447 338.765 792.447 338.765L796.148 339.48C796.148 339.582 791.998 324.969 808.935 314.341Z" fill="#F2F2F2"/>
<path fill-rule="evenodd" clip-rule="evenodd" d="M813.758 314.648L808.935 314.443C808.935 314.443 792.895 322.823 796.148 339.582L801.644 339.991C801.644 339.991 799.962 324.969 813.758 314.648Z" fill="#A9A9A9"/>
<path fill-rule="evenodd" clip-rule="evenodd" d="M821.497 316.078L824.302 316.998C824.302 316.998 836.976 326.604 834.845 339.684L833.163 339.991C833.05 340.093 834.396 324.049 821.497 316.078Z" fill="#A9A9A9"/>
<path opacity="0.5" fill-rule="evenodd" clip-rule="evenodd" d="M821.497 316.078C821.497 316.078 825.311 325.276 825.647 340.502C825.535 340.502 821.273 334.166 821.497 316.078Z" fill="#F2F2F2"/>
<path fill-rule="evenodd" clip-rule="evenodd" d="M829.685 340.298L825.535 340.502C825.535 340.502 825.311 329.057 821.385 316.078L823.068 317.202C823.18 317.305 829.237 331.816 829.685 340.298Z" fill="#A9A9A9"/>
<path fill-rule="evenodd" clip-rule="evenodd" d="M86.7326 254.833C86.3161 256.35 85.7955 257.678 85.1708 258.817C82.3595 263.939 65.8043 267.829 58.4118 268.208C55.8087 298.849 52.2686 337.647 49.3533 368.667C46.542 398.929 44.3555 421.601 44.3555 421.601L25.822 419.229C26.3426 414.771 26.8632 409.363 27.3838 403.197C29.4662 381.853 32.0692 351.782 34.464 322.849C25.0931 321.711 13.9522 322.659 11.6616 316.778C8.95442 309.758 14.0563 266.975 14.0563 266.975C16.4511 265.837 19.0541 265.552 21.1365 265.552C23.7396 265.552 25.7179 265.932 25.7179 265.932C26.6549 271.434 22.9066 286.801 23.4272 302.454C23.4272 303.402 23.5313 304.351 23.5313 305.299C23.9478 310.991 27.9044 310.991 31.1321 310.612C34.2558 310.232 35.6093 308.335 35.6093 308.335C39.0453 267.26 43.0019 209.678 43.0019 209.678C49.0409 204.176 62.5766 210.152 62.5766 210.152L61.0148 234.247C60.5983 240.319 60.0777 247.718 59.3488 256.066C61.6395 255.876 65.7002 255.212 68.3032 253.03C72.1557 249.805 74.4463 219.069 74.4463 219.069C74.4463 219.069 84.546 216.318 89.4397 219.923C89.5438 219.828 88.7109 247.813 86.7326 254.833Z" fill="#999999"/>
<path fill-rule="evenodd" clip-rule="evenodd" d="M120.676 297.046C120.676 297.046 111.618 336.794 109.431 341.632C109.431 341.632 109.431 341.632 109.431 341.727C108.702 343.244 106.62 344.288 103.913 344.857C98.6024 345.995 90.6893 345.521 83.9214 343.434L82.7761 348.841L67.0539 423.972C67.0539 423.972 65.5962 423.972 63.2014 423.783C61.5355 423.593 59.4531 423.403 57.1624 422.929C55.913 422.644 54.5594 422.36 53.2058 422.075L75.2794 329.679C72.6764 329.015 68.8239 327.782 67.5745 326.549C65.5962 324.557 71.4269 297.71 72.5723 294.77C72.7805 294.295 73.7176 293.916 74.7588 293.821C75.5918 293.726 76.4247 293.821 77.1536 294.011C78.0907 294.201 78.7154 294.675 78.7154 295.244C78.7154 295.244 77.8824 300.177 75.9041 311.94C75.1753 316.493 74.7588 320.098 74.967 321.236C74.967 321.426 75.0712 321.521 75.0712 321.616C75.4876 321.995 76.3206 322.375 77.0495 322.375L85.3791 287.37C85.4832 286.896 85.8997 286.612 86.4203 286.612C87.045 286.612 87.7739 286.517 88.8151 286.517C91.0016 286.612 93.8129 286.991 95.4788 288.509L85.3791 336.035C89.4398 337.742 97.2489 340.493 100.372 337.363C104.746 333.094 109.847 297.616 111.618 295.434C111.618 295.434 112.138 295.339 113.075 295.339C114.221 295.244 115.886 295.244 117.344 295.529C118.698 295.718 120.051 296.193 120.676 297.046Z" fill="#AFAFAF"/>
<path opacity="0.65" fill-rule="evenodd" clip-rule="evenodd" d="M86.7326 254.833C84.7543 255.307 81.0059 250.943 81.1101 249.141C81.5265 241.742 82.4636 218.121 82.4636 218.121C87.0449 217.931 89.5438 219.828 89.5438 219.828C89.5438 219.828 88.9191 246.2 86.7326 254.833Z" fill="#A9A9A9"/>
<path fill-rule="evenodd" clip-rule="evenodd" d="M63.0972 423.877C64.3466 418.755 81.0059 342.96 81.0059 342.96L83.8172 343.529L66.9496 424.162C66.9496 424.067 65.4919 424.067 63.0972 423.877Z" fill="#DCD951"/>
<path opacity="0.5" fill-rule="evenodd" clip-rule="evenodd" d="M87.8779 290.121L59.8694 423.308L54.6634 422.644L87.8779 290.121Z" fill="#A9A9A9"/>
<path opacity="0.5" fill-rule="evenodd" clip-rule="evenodd" d="M59.2447 210.817L44.3555 421.506C44.3555 421.506 42.7937 354.343 45.7091 319.434C50.7068 260.43 59.2447 210.817 59.2447 210.817Z" fill="#A9A9A9"/>
<path fill-rule="evenodd" clip-rule="evenodd" d="M120.676 297.046C120.676 297.046 111.618 336.794 109.431 341.632C109.431 341.632 109.431 341.632 109.431 341.727C108.702 343.244 106.62 344.288 103.913 344.857C98.6024 345.995 90.6893 345.521 83.9214 343.434L82.7761 348.841L67.0539 423.972C67.0539 423.972 65.5962 423.972 63.2014 423.783C61.5355 423.593 59.4531 423.403 57.1624 422.929C55.913 422.644 54.5594 422.36 53.2058 422.075L75.2794 329.679C72.6764 329.015 68.8239 327.782 67.5745 326.549C65.5962 324.557 71.4269 297.71 72.5723 294.77C72.7805 294.295 73.7176 293.916 74.7588 293.821C75.5918 293.726 76.4247 293.821 77.1536 294.011C78.0907 294.201 78.7154 294.675 78.7154 295.244C78.7154 295.244 77.8824 300.177 75.9041 311.94C75.1753 316.493 74.7588 320.098 74.967 321.236C74.967 321.426 75.0712 321.521 75.0712 321.616C75.4876 321.995 76.3206 322.375 77.0495 322.375L85.3791 287.37C85.4832 286.896 85.8997 286.612 86.4203 286.612C87.045 286.612 87.7739 286.517 88.8151 286.517C91.0016 286.612 93.8129 286.991 95.4788 288.509L85.3791 336.035C89.4398 337.742 97.2489 340.493 100.372 337.363C104.746 333.094 109.847 297.616 111.618 295.434C111.618 295.434 112.138 295.339 113.075 295.339C114.221 295.244 115.886 295.244 117.344 295.529C118.698 295.718 120.051 296.193 120.676 297.046Z" fill="#999999"/>
<path fill-rule="evenodd" clip-rule="evenodd" d="M96.4157 429C101.413 416.478 111.201 390.012 111.721 367.719C111.721 367.719 97.4569 398.549 91.3138 425.49C91.1055 426.723 90.8973 427.956 90.6891 429H96.4157Z" fill="#999999"/>
<path fill-rule="evenodd" clip-rule="evenodd" d="M90.5851 429C90.7933 427.862 91.1057 426.629 91.3139 425.49C93.3963 413.443 96.1035 393.711 94.9581 379.766C94.9581 379.766 84.1296 403.387 84.9625 429H90.5851Z" fill="#999999"/>
<path fill-rule="evenodd" clip-rule="evenodd" d="M89.2314 429L48.312 377.679H34.7763L20.8241 389.253V350.928L6.76784 349.505L0 354.248V429H89.2314Z" fill="#A9A9A9"/>
<path fill-rule="evenodd" clip-rule="evenodd" d="M34.568 429L39.0452 420.842L60.0776 422.834L47.2707 423.213L74.5504 426.534L76.9451 429H89.2314L48.312 377.679L34.7763 412.968L27.2796 429H34.568Z" fill="#EEB3B2"/>
<path fill-rule="evenodd" clip-rule="evenodd" d="M20.8241 350.928L4.1648 387.166L2.08238 403.482L20.8241 389.253V350.928Z" fill="#EEB3B2"/>
<path d="M543.5 201.5L525.5 198.5L524 215.5L533 227.5L564 225L543.5 201.5Z" fill="#C4C4C4"/>
</g>
<defs>
<linearGradient id="paint0_linear_568_951" x1="960.22" y1="429.547" x2="960.22" y2="260.15" gradientUnits="userSpaceOnUse">
<stop stop-color="#E76B4A"/>
<stop offset="0.5923" stop-color="#E7A9DE"/>
<stop offset="0.994" stop-color="#FCFAF7"/>
</linearGradient>
<linearGradient id="paint1_linear_568_951" x1="902.848" y1="344.265" x2="741.144" y2="335.098" gradientUnits="userSpaceOnUse">
<stop offset="0.00396825" stop-color="#666666"/>
<stop offset="0.1531" stop-color="#838383" stop-opacity="0.8503"/>
<stop offset="0.4277" stop-color="#B3B3B3" stop-opacity="0.5746"/>
<stop offset="0.6704" stop-color="#D5D5D5" stop-opacity="0.3309"/>
<stop offset="0.8695" stop-color="#EAEAEA" stop-opacity="0.1311"/>
<stop offset="1" stop-color="#F2F2F2" stop-opacity="0"/>
</linearGradient>
<linearGradient id="paint2_linear_568_951" x1="960.22" y1="429.547" x2="960.22" y2="260.15" gradientUnits="userSpaceOnUse">
<stop stop-color="#E76B4A"/>
<stop offset="0.5923" stop-color="#E7A9DE"/>
<stop offset="0.994" stop-color="#FCFAF7"/>
</linearGradient>
<linearGradient id="paint3_linear_568_951" x1="902.848" y1="344.265" x2="741.144" y2="335.098" gradientUnits="userSpaceOnUse">
<stop offset="0.00396825" stop-color="#666666"/>
<stop offset="0.1531" stop-color="#838383" stop-opacity="0.8503"/>
<stop offset="0.4277" stop-color="#B3B3B3" stop-opacity="0.5746"/>
<stop offset="0.6704" stop-color="#D5D5D5" stop-opacity="0.3309"/>
<stop offset="0.8695" stop-color="#EAEAEA" stop-opacity="0.1311"/>
<stop offset="1" stop-color="#F2F2F2" stop-opacity="0"/>
</linearGradient>
<clipPath id="clip0_568_951">
<rect width="978.529" height="429" rx="8.17143" fill="white"/>
</clipPath>
<clipPath id="clip1_568_951">
<rect width="978.529" height="429" rx="8.17143" fill="white"/>
</clipPath>
</defs>
</svg>
